<?xml version="1.0" encoding="UTF-8" standalone="no"?>
<!-- Created with Inkscape (http://www.inkscape.org/) -->

<svg
   width="797.7641"
   height="493.02399"
   viewBox="0 0 797.7641 493.02401"
   version="1.1"
   id="svg5"
   inkscape:version="1.1 (c68e22c387, 2021-05-23)"
   sodipodi:docname="logo.svg"
   xmlns:inkscape="http://www.inkscape.org/namespaces/inkscape"
   xmlns:sodipodi="http://sodipodi.sourceforge.net/DTD/sodipodi-0.dtd"
   xmlns="http://www.w3.org/2000/svg"
   xmlns:svg="http://www.w3.org/2000/svg">
  <sodipodi:namedview
     id="namedview7"
     pagecolor="#ffffff"
     bordercolor="#666666"
     borderopacity="1.0"
     inkscape:pageshadow="2"
     inkscape:pageopacity="0.0"
     inkscape:pagecheckerboard="0"
     inkscape:document-units="px"
     showgrid="false"
     units="px"
     inkscape:zoom="0.6975379"
     inkscape:cx="396.39423"
     inkscape:cy="561.25983"
     inkscape:current-layer="layer1"
     inkscape:snap-global="false"
     fit-margin-top="20"
     fit-margin-left="20"
     fit-margin-right="20"
     fit-margin-bottom="20"
     lock-margins="false" />
  <defs
     id="defs2">
    <inkscape:path-effect
       effect="skeletal"
       id="path-effect57400"
       is_visible="true"
       lpeversion="1"
       pattern="M 2.7822097,20.329818 C 1.3177407,11.257178 6.0067907,4.2647783 6.0067907,4.2647783 16.253039,17.436928 24.043339,16.009038 26.579279,29.351898 c 1.14305,6.01417 -1.96332,17.34372 -1.96332,17.34372 -6.25728,-7.56831 -19.9385333,-14.62461 -21.8337493,-26.3658 z"
       copytype="repeated"
       prop_scale="1"
       scale_y_rel="false"
       spacing="-18.2"
       normal_offset="0"
       tang_offset="0"
       prop_units="false"
       vertical_pattern="true"
       hide_knot="false"
       fuse_tolerance="0" />
    <inkscape:path-effect
       effect="skeletal"
       id="path-effect57396"
       is_visible="true"
       lpeversion="1"
       pattern="M 2.7822097,20.329818 C 1.3177407,11.257178 6.0067907,4.2647783 6.0067907,4.2647783 16.253039,17.436928 24.043339,16.009038 26.579279,29.351898 c 1.14305,6.01417 -1.96332,17.34372 -1.96332,17.34372 -6.25728,-7.56831 -19.9385333,-14.62461 -21.8337493,-26.3658 z"
       copytype="repeated"
       prop_scale="1"
       scale_y_rel="false"
       spacing="-18.2"
       normal_offset="0"
       tang_offset="0"
       prop_units="false"
       vertical_pattern="true"
       hide_knot="false"
       fuse_tolerance="0" />
    <inkscape:path-effect
       effect="skeletal"
       id="path-effect57392"
       is_visible="true"
       lpeversion="1"
       pattern="M 2.7822097,20.329818 C 1.3177407,11.257178 6.0067907,4.2647783 6.0067907,4.2647783 16.253039,17.436928 24.043339,16.009038 26.579279,29.351898 c 1.14305,6.01417 -1.96332,17.34372 -1.96332,17.34372 -6.25728,-7.56831 -19.9385333,-14.62461 -21.8337493,-26.3658 z"
       copytype="repeated"
       prop_scale="1"
       scale_y_rel="false"
       spacing="-18.2"
       normal_offset="0"
       tang_offset="0"
       prop_units="false"
       vertical_pattern="true"
       hide_knot="false"
       fuse_tolerance="0" />
    <inkscape:path-effect
       effect="skeletal"
       id="path-effect57388"
       is_visible="true"
       lpeversion="1"
       pattern="M 2.7822097,20.329818 C 1.3177407,11.257178 6.0067907,4.2647783 6.0067907,4.2647783 16.253039,17.436928 24.043339,16.009038 26.579279,29.351898 c 1.14305,6.01417 -1.96332,17.34372 -1.96332,17.34372 -6.25728,-7.56831 -19.9385333,-14.62461 -21.8337493,-26.3658 z"
       copytype="repeated"
       prop_scale="1"
       scale_y_rel="false"
       spacing="-18.2"
       normal_offset="0"
       tang_offset="0"
       prop_units="false"
       vertical_pattern="true"
       hide_knot="false"
       fuse_tolerance="0" />
    <inkscape:path-effect
       effect="skeletal"
       id="path-effect57384"
       is_visible="true"
       lpeversion="1"
       pattern="M 2.7822097,20.329818 C 1.3177407,11.257178 6.0067907,4.2647783 6.0067907,4.2647783 16.253039,17.436928 24.043339,16.009038 26.579279,29.351898 c 1.14305,6.01417 -1.96332,17.34372 -1.96332,17.34372 -6.25728,-7.56831 -19.9385333,-14.62461 -21.8337493,-26.3658 z"
       copytype="repeated"
       prop_scale="1"
       scale_y_rel="false"
       spacing="-18.2"
       normal_offset="0"
       tang_offset="0"
       prop_units="false"
       vertical_pattern="true"
       hide_knot="false"
       fuse_tolerance="0" />
    <inkscape:path-effect
       effect="skeletal"
       id="path-effect57380"
       is_visible="true"
       lpeversion="1"
       pattern="M 2.7822097,20.329818 C 1.3177407,11.257178 6.0067907,4.2647783 6.0067907,4.2647783 16.253039,17.436928 24.043339,16.009038 26.579279,29.351898 c 1.14305,6.01417 -1.96332,17.34372 -1.96332,17.34372 -6.25728,-7.56831 -19.9385333,-14.62461 -21.8337493,-26.3658 z"
       copytype="repeated"
       prop_scale="1"
       scale_y_rel="false"
       spacing="-18.2"
       normal_offset="0"
       tang_offset="0"
       prop_units="false"
       vertical_pattern="true"
       hide_knot="false"
       fuse_tolerance="0" />
    <inkscape:path-effect
       effect="skeletal"
       id="path-effect46744"
       is_visible="true"
       lpeversion="1"
       pattern="M 2.7822097,20.329818 C 1.3177407,11.257178 6.0067907,4.2647783 6.0067907,4.2647783 16.253039,17.436928 24.043339,16.009038 26.579279,29.351898 c 1.14305,6.01417 -1.96332,17.34372 -1.96332,17.34372 -6.25728,-7.56831 -19.9385333,-14.62461 -21.8337493,-26.3658 z"
       copytype="repeated"
       prop_scale="1"
       scale_y_rel="false"
       spacing="-18.2"
       normal_offset="0"
       tang_offset="0"
       prop_units="false"
       vertical_pattern="true"
       hide_knot="false"
       fuse_tolerance="0" />
    <inkscape:path-effect
       effect="skeletal"
       id="path-effect44602"
       is_visible="true"
       lpeversion="1"
       pattern="M 2.7822097,20.329818 C 1.3177407,11.257178 6.0067907,4.2647783 6.0067907,4.2647783 16.253039,17.436928 24.043339,16.009038 26.579279,29.351898 c 1.14305,6.01417 -1.96332,17.34372 -1.96332,17.34372 -6.25728,-7.56831 -19.9385333,-14.62461 -21.8337493,-26.3658 z"
       copytype="repeated"
       prop_scale="1"
       scale_y_rel="false"
       spacing="-18.2"
       normal_offset="0"
       tang_offset="0"
       prop_units="false"
       vertical_pattern="true"
       hide_knot="false"
       fuse_tolerance="0" />
    <inkscape:path-effect
       effect="skeletal"
       id="path-effect38926"
       is_visible="true"
       lpeversion="1"
       pattern="M 2.7822097,20.329818 C 1.3177407,11.257178 6.0067907,4.2647783 6.0067907,4.2647783 16.253039,17.436928 24.043339,16.009038 26.579279,29.351898 c 1.14305,6.01417 -1.96332,17.34372 -1.96332,17.34372 -6.25728,-7.56831 -19.9385333,-14.62461 -21.8337493,-26.3658 z"
       copytype="repeated"
       prop_scale="1"
       scale_y_rel="false"
       spacing="-18.2"
       normal_offset="0"
       tang_offset="0"
       prop_units="false"
       vertical_pattern="true"
       hide_knot="false"
       fuse_tolerance="0" />
    <inkscape:path-effect
       effect="skeletal"
       id="path-effect20797"
       is_visible="true"
       lpeversion="1"
       pattern="M 2.7822097,20.329818 C 1.3177407,11.257178 6.0067907,4.2647783 6.0067907,4.2647783 16.253039,17.436928 24.043339,16.009038 26.579279,29.351898 c 1.14305,6.01417 -1.96332,17.34372 -1.96332,17.34372 -6.25728,-7.56831 -19.9385333,-14.62461 -21.8337493,-26.3658 z"
       copytype="repeated"
       prop_scale="1"
       scale_y_rel="false"
       spacing="-18.2"
       normal_offset="0"
       tang_offset="0"
       prop_units="false"
       vertical_pattern="true"
       hide_knot="false"
       fuse_tolerance="0" />
    <inkscape:path-effect
       effect="skeletal"
       id="path-effect18642"
       is_visible="true"
       lpeversion="1"
       pattern="M 2.7822097,20.329818 C 1.3177407,11.257178 6.0067907,4.2647783 6.0067907,4.2647783 16.253039,17.436928 24.043339,16.009038 26.579279,29.351898 c 1.14305,6.01417 -1.96332,17.34372 -1.96332,17.34372 -6.25728,-7.56831 -19.9385333,-14.62461 -21.8337493,-26.3658 z"
       copytype="repeated"
       prop_scale="1"
       scale_y_rel="false"
       spacing="-18.2"
       normal_offset="0"
       tang_offset="0"
       prop_units="false"
       vertical_pattern="true"
       hide_knot="false"
       fuse_tolerance="0" />
    <inkscape:path-effect
       effect="skeletal"
       id="path-effect12159"
       is_visible="true"
       lpeversion="1"
       pattern="M 2.7822097,20.329818 C 1.3177407,11.257178 6.0067907,4.2647783 6.0067907,4.2647783 16.253039,17.436928 24.043339,16.009038 26.579279,29.351898 c 1.14305,6.01417 -1.96332,17.34372 -1.96332,17.34372 -6.25728,-7.56831 -19.9385333,-14.62461 -21.8337493,-26.3658 z"
       copytype="repeated"
       prop_scale="1"
       scale_y_rel="false"
       spacing="-18.2"
       normal_offset="0"
       tang_offset="0"
       prop_units="false"
       vertical_pattern="true"
       hide_knot="false"
       fuse_tolerance="0" />
    <inkscape:path-effect
       effect="skeletal"
       id="path-effect12157"
       is_visible="true"
       lpeversion="1"
       pattern="M 2.7822097,20.329818 C 1.3177407,11.257178 6.0067907,4.2647783 6.0067907,4.2647783 16.253039,17.436928 24.043339,16.009038 26.579279,29.351898 c 1.14305,6.01417 -1.96332,17.34372 -1.96332,17.34372 -6.25728,-7.56831 -19.9385333,-14.62461 -21.8337493,-26.3658 z"
       copytype="repeated"
       prop_scale="1"
       scale_y_rel="false"
       spacing="-18.2"
       normal_offset="0"
       tang_offset="0"
       prop_units="false"
       vertical_pattern="true"
       hide_knot="false"
       fuse_tolerance="0" />
    <inkscape:path-effect
       effect="skeletal"
       id="path-effect5677"
       is_visible="true"
       lpeversion="1"
       pattern="M 2.7822097,20.329818 C 1.3177407,11.257178 6.0067907,4.2647783 6.0067907,4.2647783 16.253039,17.436928 24.043339,16.009038 26.579279,29.351898 c 1.14305,6.01417 -1.96332,17.34372 -1.96332,17.34372 -6.25728,-7.56831 -19.9385333,-14.62461 -21.8337493,-26.3658 z"
       copytype="repeated"
       prop_scale="1"
       scale_y_rel="false"
       spacing="-20"
       normal_offset="0"
       tang_offset="0"
       prop_units="false"
       vertical_pattern="true"
       hide_knot="false"
       fuse_tolerance="0" />
    <pattern
       id="EMFhbasepattern"
       patternUnits="userSpaceOnUse"
       width="6"
       height="6"
       x="0"
       y="0" />
  </defs>
  <g
     inkscape:label="Layer 1"
     inkscape:groupmode="layer"
     id="layer1"
     transform="translate(2.2628269,-7.9839687)">
    <rect
       style="opacity:1;fill:#1e90ff;fill-opacity:1;stroke:none;stroke-width:4.2591;stroke-linecap:round;stroke-miterlimit:4;stroke-dasharray:none;stroke-opacity:1"
       id="rect57641"
       width="797.76398"
       height="493.02399"
       x="-2.2628269"
       y="7.9839687" />
    <g
       id="g80600">
      <path
         id="path48651-0"
         style="fill:#ffffff;fill-opacity:1;stroke:none;stroke-width:5;stroke-linecap:butt;stroke-linejoin:miter;stroke-miterlimit:4;stroke-dasharray:none;stroke-opacity:1"
         d="m 580.83571,61.561756 c -2.09669,58.133644 -29.7537,86.012834 -45.49587,145.172624 -12.67089,-1.74551 -33.80205,0.92262 -45.64843,10.24609 -26.5933,-15.32728 -45.34096,-18.79939 -71.85743,-1.10938 C 384.25035,192.82123 327.91848,180.51572 290.54297,191.44137 326.77941,152.46988 334.15371,52.188638 257.89995,52.886987 202.40607,53.395212 154.96637,89.681831 122.93586,122.32178 76.076939,170.07228 39.605314,238.58326 37.820244,296.82455 33.923765,423.95451 168.13774,430.75848 222.54883,346.94527 c 14.02979,45.62265 73.25367,57.21305 108.17766,16.93147 4.00656,11.09865 16.10078,18.9981 27.54348,18.76576 26.76786,-0.54352 45.47348,-22.95752 54.37487,-52.32504 6.10545,13.42256 23.77885,16.96445 35.3118,14.50211 13.75071,28.4858 48.67844,37.03962 77.96914,19.98703 15.26478,16.47505 41.67414,16.86711 58.29492,7.80664 59.37944,65.10138 148.91423,-5.20851 122.25586,-78.63672 12.75275,-8.0711 29.86712,-30.47516 29.72886,-48.88603 -0.59023,-78.59248 -65.18338,-74.84687 -102.348,-59.76436 5.92012,-34.35481 43.3233,-55.70822 51.4707,-82.85156 C 698.92932,57.161689 581.96848,30.154036 580.83571,61.561756 Z"
         sodipodi:nodetypes="sccccsssccscccccscss" />
      <g
         id="g80586">
        <path
           style="fill:#ffa200;fill-opacity:1;stroke:#692116;stroke-width:5;stroke-linecap:butt;stroke-linejoin:miter;stroke-miterlimit:4;stroke-dasharray:none;stroke-opacity:1"
           d="m 207.93934,199.16965 c -12.86721,8.68974 -31.78217,16.71759 -52.5143,25.68951 5.64913,3.78252 7.8597,6.37478 6.36976,12.28799 6.00048,0.55309 11.38495,1.5607 11.03094,7.17625 9.15294,-0.32586 13.53322,-0.0499 17.93225,6.2387 13.93248,-10.42118 26.71732,-26.47033 36.98696,-39.40255 z"
           id="path48651"
           sodipodi:nodetypes="ccccccc" />
        <ellipse
           style="fill:#ffa200;fill-opacity:1;stroke:#692116;stroke-width:5.02651;stroke-linecap:round;stroke-miterlimit:4;stroke-dasharray:none;stroke-opacity:1"
           id="path48536"
           cx="290.70438"
           cy="133.64012"
           rx="18.486919"
           ry="15.396398"
           transform="matrix(0.95991012,0.28030797,-0.41622034,0.90926378,0,0)" />
        <path
           style="fill:#ffa200;fill-opacity:1;stroke:#692116;stroke-width:5;stroke-linecap:butt;stroke-linejoin:miter;stroke-miterlimit:4;stroke-dasharray:none;stroke-opacity:1"
           d="m 605.81049,126.51106 c 3.17742,-15.30904 4.49545,-28.211209 3.10809,-48.784189 4.26596,1.60459 10.29727,1.50769 15.78355,-0.26854 3.04773,4.82218 10.90958,7.26259 15.28915,7.23138 1.94597,5.76073 5.41533,10.9072 11.11256,12.53034 -12.91173,10.814879 -18.15778,21.907209 -27.07428,43.576859 z"
           id="path48651-7"
           sodipodi:nodetypes="ccccccc" />
        <ellipse
           style="fill:#ffa200;fill-opacity:1;stroke:#692116;stroke-width:5.02651;stroke-linecap:round;stroke-miterlimit:4;stroke-dasharray:none;stroke-opacity:1"
           id="path48536-1"
           cx="-608.20422"
           cy="-265.59833"
           rx="18.486919"
           ry="15.396398"
           transform="matrix(-0.97815449,0.20787926,-0.06419261,-0.99793753,0,0)" />
        <path
           style="fill:#ffa200;fill-opacity:1;stroke:#692116;stroke-width:5;stroke-linecap:butt;stroke-linejoin:miter;stroke-miterlimit:4;stroke-dasharray:none;stroke-opacity:1"
           d="m 452.33237,259.5635 c 1.66119,-2.17702 2.55684,-4.57441 3.18481,-6.76783 0.62917,-2.19764 0.91536,-4.00791 0.91536,-4.00791 -5.87121,-0.28722 -11.81454,-0.12147 -15.64311,0.5837 -4.02878,0.74205 -8.22952,2.40853 -11.18241,7.84127 -0.90667,1.66699 -1.69354,3.78347 -2.09661,6.35478 -0.78417,5.00251 0.91864,11.29133 4.48671,16.62228 3.3759,4.91876 7.85778,7.09934 7.85778,7.09934 -1.86015,-3.61838 -1.97387,-7.45016 -1.06799,-10.87078 2.13604,-7.86078 8.02403,-11.5187 11.52645,-14.71888 0,0 0,0 0,0 0.7645,-0.70067 1.43929,-1.37625 2.01901,-2.13597 z m 0.52126,10.17168 c 0.002,-0.35466 -0.0965,-0.65301 -0.32894,-0.94759 0,0 0,0 0,0 -0.91884,-1.03437 -1.53885,-1.72157 -2.65968,-3.07389 -0.90812,-1.09567 -1.66914,-2.0204 -1.66914,-2.0204 -2.57965,1.86509 -4.67171,4.01941 -6.27161,6.18201 -1.5771,2.13179 -2.80269,4.43887 -3.47994,6.73334 -0.88577,3.07885 -0.95266,7.04261 2.16282,11.07334 1.93384,2.41386 5.36003,5.05465 10.59951,6.03048 0.0206,0.004 0.0413,0.008 0.0621,0.0114 4.28165,0.64813 8.9955,-0.15181 12.96702,-2.40769 6.18541,-3.51439 9.10877,-8.04901 10.00126,-9.50801 0,0 0,0 0,0 0.0892,-0.19815 0.13892,-0.30759 0.13892,-0.30759 -0.15481,-0.004 -0.31153,-0.008 -0.47015,-0.0128 -4.65386,0.99543 -10.4358,0.33592 -14.93695,-1.78368 0,0 0,0 0,0 -3.01505,-1.42734 -5.37398,-3.5298 -6.09663,-5.64376 -0.52125,-1.52354 -0.41652,-2.88627 -0.13375,-3.59964 0.0611,-0.26427 0.11364,-0.50247 0.1152,-0.72555 z m 4.77992,-2.40143 c -1.66053,0.90288 -2.53652,1.769 -3.16847,2.44092 -0.80407,0.93034 -1.1438,2.28668 -1.48126,2.91667 -0.14187,0.31216 -0.26789,0.50099 -0.26789,0.50099 0.042,0.24453 0.0984,0.48603 0.16808,0.72293 0.77441,2.61264 3.80025,4.67575 6.10614,5.83591 4.60305,2.30501 9.96062,3.36387 14.71111,1.53883 0,0 0,0 0,0 1.82506,-0.2873 3.639,-0.82467 5.96047,-1.8175 2.69614,-1.15307 7.54791,-5.34407 10.09637,-7.599 1.19197,-1.03573 1.96841,-1.7353 1.96841,-1.7353 -1.10052,-0.31773 -2.25454,-0.72352 -3.45793,-1.17758 -4.04498,-1.477 -8.76271,-3.69973 -13.79317,-4.70684 -5.02713,-1.00645 -10.61151,-0.8234 -15.74594,2.55437 -0.39172,0.16645 -0.75674,0.34119 -1.09592,0.5256 z m 22.49385,-15.81398 c -0.22249,0.0738 -0.44234,0.15074 -0.6595,0.2305 0,0 0,0 0,0 -4.57481,1.59945 -7.93922,4.58731 -10.08352,7.24237 -2.12544,2.63171 -2.92543,4.7332 -2.92543,4.7332 5.79882,-0.4499 10.27988,0.92472 13.36653,2.10987 3.29831,1.26641 5.83337,2.6224 8.55736,3.34836 2.83313,0.79146 5.72128,0.9619 9.90328,0.14978 2.52019,-0.48941 5.87576,-2.19532 8.66869,-3.74123 2.79133,-1.54502 5.27725,-3.0843 5.75596,-3.38542 0.0684,-0.0428 0.10419,-0.0655 0.10419,-0.0655 -0.0476,-0.0223 -0.0953,-0.0447 -0.14312,-0.0673 -4.28758,-2.02388 -9.16624,-5.66836 -14.67874,-8.31452 -5.49504,-2.63777 -11.68012,-4.2929 -17.8657,-2.24002 z m 24.37597,-9.68406 c -9.98392,1.4719 -15.02225,8.88946 -15.02225,8.88946 6.44154,1.48802 10.68904,4.06762 13.84067,6.11706 3.31709,2.15704 5.77794,3.96325 9.2486,4.88572 1.96268,0.52576 4.16299,0.74894 6.96006,0.63988 2.76082,-0.10765 6.65085,-1.44522 9.71827,-2.59041 3.12488,-1.16664 5.62608,-2.22473 5.62608,-2.22473 -7.11581,-5.04332 -16.18459,-16.1928 -28.18505,-15.90082 0,0 0,0 0,0 -0.72257,0.0157 -1.45181,0.0755 -2.18638,0.18384 z m 25.52665,-5.67393 c -10.27609,-0.13862 -16.30645,6.44426 -16.30645,6.44426 6.99595,2.8582 10.93966,6.55273 13.94605,9.30335 3.19888,2.92673 5.60583,5.05589 10.07552,6.31525 1.0772,0.31096 2.24168,0.56203 3.53991,0.76685 2.61559,0.41265 6.45868,-0.15456 9.33647,-0.55932 2.96667,-0.41727 5.33423,-0.70934 5.33423,-0.70934 -4.03587,-6.22343 -9.76037,-16.99133 -20.12782,-20.52793 0,0 0,0 0,0 -1.83031,-0.63334 -3.76974,-1.00576 -5.79791,-1.03312 z"
           id="path11614"
           sodipodi:nodetypes="csc"
           inkscape:original-d="m 450.70832,242.29125 c -24.39777,21.49742 -4.54033,54.06545 16.29762,32.52253 16.86024,-17.43064 66.44755,-32.97063 93.26188,-26.30308"
           inkscape:path-effect="#path-effect12157" />
        <path
           style="fill:#ffa200;fill-opacity:1;stroke:#692116;stroke-width:5;stroke-linecap:butt;stroke-linejoin:miter;stroke-miterlimit:4;stroke-dasharray:none;stroke-opacity:1"
           d="m 226.87429,179.02533 c -7.55231,3.26456 -11.29127,10.3425 -11.29127,10.3425 7.86902,1.6903 12.75159,3.98042 17.22571,5.37479 4.35452,1.35709 8.72783,1.85891 15.21358,-1.51649 3.03121,-1.57754 6.29815,-4.9079 8.8151,-8.07804 2.47527,-3.11762 4.06195,-5.86701 4.06195,-5.86701 -5.16705,0.74934 -11.26745,-0.31562 -17.28466,-1.10858 -5.98414,-0.78861 -11.72369,-1.3157 -16.74041,0.85283 z m 17.13408,-13.68094 c -6.60852,4.48096 -9.09111,11.97938 -9.09111,11.97938 8.00691,0.41325 13.19952,1.75591 17.85269,2.28229 4.50896,0.51007 8.9614,0.14799 14.70186,-4.54167 1.24321,-1.01564 2.49616,-2.45482 3.66271,-4.09451 3.84192,-5.41011 6.08965,-12.68473 6.08965,-12.68473 -5.22751,2.22724 -11.9073,2.50521 -18.2922,3.06059 -5.58795,0.49275 -10.78088,1.18964 -14.9236,3.99865 z m 13.43859,-16.5573 c -2.34282,2.55115 -3.72527,5.32653 -4.60452,7.75584 -1.13961,3.13978 -1.4065,5.65033 -1.4065,5.65033 2.80739,-0.41578 5.20344,-0.68114 7.47311,-0.8656 4.88039,-0.39078 9.4689,-0.36117 12.84453,-1.12566 3.56887,-0.80825 7.24307,-2.70343 10.86687,-7.88605 1.31486,-1.88047 2.39856,-4.54014 3.16999,-7.37881 1.61815,-5.99843 1.42584,-12.11035 1.42584,-12.11035 -3.59648,3.28365 -8.7192,5.53378 -13.82402,7.51332 -6.18505,2.40161 -12.11258,4.27344 -15.9453,8.44698 z m 8.00561,-18.69154 c -1.07071,2.33872 -1.57611,4.58373 -1.81047,6.62937 -0.45427,4.01561 0.1087,7.38458 0.1087,7.38458 3.93959,-1.63917 6.64191,-2.65846 9.66996,-3.75882 3.87993,-1.40805 7.42344,-2.61326 10.13169,-4.50617 2.74506,-1.91862 5.30888,-4.97823 6.83092,-10.60743 0.80088,-2.96205 0.73308,-6.92755 0.13593,-10.70164 0,0 0,0 0,0 -0.73087,-6.03009 -3.51929,-10.45724 -4.27168,-11.61644 0,0 0,0 0,-1e-5 -0.0761,-0.11362 -0.11682,-0.17241 -0.11682,-0.17241 -0.003,0.0767 -0.007,0.15343 -0.0108,0.23008 -0.36112,4.92602 -2.92278,8.85064 -6.10033,11.9105 -5.64402,5.31044 -11.93366,9.45616 -14.56714,15.20839 z m 1.12117,-17.56381 c -0.10314,0.88322 -0.0209,1.7515 0.27568,2.79661 0.81605,4.6851 2.99779,8.50655 2.99779,8.50655 4.16062,-3.68483 7.5198,-6.47655 10.36698,-8.95425 3.08521,-2.75822 5.90798,-6.28827 5.57731,-11.75549 0,0 0,0 0,0 -0.23523,-2.95548 -1.49913,-6.878236 -4.90655,-10.627412 -0.0195,-0.02148 -0.0392,-0.04295 -0.0589,-0.06442 -2.65271,-2.680131 -6.4003,-4.799661 -10.3238,-5.962903 -3.90194,-1.156849 -7.32855,-1.206986 -9.71939,-1.010546 -1.86207,0.103273 -3.0072,0.286903 -3.0072,0.286903 0.9218,0.744657 1.79936,1.593737 2.62772,2.523897 4.8197,5.224529 7.99955,13.543535 7.4316,18.995985 -0.20817,1.98078 -0.73922,3.48837 -1.10594,4.4746 -0.0682,0.26074 -0.12371,0.51985 -0.15531,0.79048 z m -8.99679,-4.87296 c 0.0666,0.0248 0.13297,0.0491 0.199,0.073 2.38123,1.0272 4.22425,1.04174 5.70679,0.93419 1.49118,-0.10816 2.69516,-0.28577 3.4307,-0.34709 0.4086,-0.0716 0.66918,-0.11 0.66918,-0.11 0.0627,-0.27588 0.1149,-0.55423 0.15727,-0.83366 0.54653,-3.68907 -0.98635,-8.400707 -2.09882,-11.182598 -1.26226,-3.156446 -2.87476,-6.060385 -5.21252,-8.108316 -2.30357,-2.101052 -5.7264,-3.845794 -10.91706,-4.430914 -2.66971,-0.300944 -5.92541,0.165821 -9.0245,1.044533 -5.50877,1.505708 -10.21407,4.203628 -10.21407,4.203628 4.18624,1.533471 8.23206,4.604636 12.14714,7.837705 5.54597,4.580882 10.43899,9.165062 15.15689,10.919492 z m -19.53251,1.75543 c 2.32847,-0.14675 4.38386,-0.66521 6.19587,-1.33638 4.18572,-1.4912 7.00459,-3.89861 7.00459,-3.89861 -3.42376,-2.90634 -6.36675,-5.352415 -8.83766,-7.519825 -2.86593,-2.513503 -5.39032,-4.792181 -8.26326,-6.157808 -2.87986,-1.368913 -6.61891,-2.075279 -11.99129,-0.922685 -0.10537,0.02261 -0.21172,0.04686 -0.31899,0.07271 -3.4752,0.839739 -7.47031,3.229938 -10.65897,5.62268 -3.12573,2.345523 -5.26655,4.514508 -5.26655,4.514508 7.19686,0.873036 15.59933,5.595456 23.14354,8.071046 3.08902,1.05182 6.02343,1.7415 8.99272,1.55436 z m -19.32809,8.17784 c 5.79238,-2.07643 9.48376,-6.27683 10.95866,-8.15987 0,0 1e-5,0 1e-5,0 0.44883,-0.59645 0.6861,-0.97047 0.6861,-0.97047 -0.4289,-0.16267 -0.84792,-0.32225 -1.26128,-0.48047 -6.90921,-2.55291 -11.40544,-4.99567 -15.63878,-6.57021 -4.14843,-1.542966 -8.41835,-2.152128 -14.88891,0.64951 -2.49565,1.08057 -5.24977,3.29341 -7.62953,5.62011 0,0 0,0 0,0 -3.4285,3.33772 -5.95643,6.71221 -5.95643,6.71221 3.70407,0.055 7.97599,0.99465 12.34824,1.97415 7.47285,1.67214 15.0601,3.49126 21.38192,1.22504 z m -18.62834,12.71587 c 1.95065,-1.04196 3.5636,-2.27981 4.89496,-3.54669 3.9538,-3.74332 5.61899,-7.96445 5.61899,-7.96445 -5.82931,-0.64946 -9.60722,-1.57351 -13.37053,-2.56975 -6.5592,-1.73838 -11.06676,-3.21293 -18.98722,0.98373 -2.75073,1.45747 -5.82315,4.55512 -8.19448,7.23228 -2.37289,2.67891 -4.07904,4.95977 -4.07904,4.95977 4.85432,0.22744 10.85063,1.83774 16.91397,2.68023 6.08026,0.84484 12.15203,0.92311 17.20335,-1.77512 z m -18.91088,14.94111 c 8.26303,-4.54558 10.6403,-12.54515 10.6403,-12.54515 -6.80471,0.0499 -11.28882,-0.957 -15.30463,-1.88903 -3.95299,-0.91745 -7.09039,-1.66056 -10.94877,-1.00326 -1.90955,0.43076 -4.00854,1.25898 -6.39368,2.66072 -2.82905,1.66264 -5.86169,5.05081 -8.18726,8.15011 -2.30118,3.06682 -3.8237,5.72549 -3.8237,5.72549 9.14747,-1.09138 21.837,3.3814 31.38033,0.083 0,0 0,-1e-5 0,-1e-5 0.90181,-0.32037 1.7828,-0.7117 2.63741,-1.18183 z M 163.8862,160.3915 c 6.92743,-4.86877 9.06529,-12.67872 9.06529,-12.67872 -8.65321,0.12435 -12.65566,-1.05263 -17.8337,-1.60773 -4.52267,-0.48485 -8.69082,-0.15968 -14.34841,4.08412 -2.6048,1.95388 -5.22791,5.63712 -7.19091,8.95268 -1.94357,3.28274 -3.17195,6.07935 -3.17195,6.07935 9.76287,-2.20549 24.32744,1.60271 33.47968,-4.8297 z m -15.30433,17.01783 c 6.41862,-5.66553 7.62962,-13.71017 7.62962,-13.71017 -8.46886,1.15231 -12.81839,0.42988 -17.9132,0.43882 -4.55977,0.008 -8.65317,0.76598 -13.84244,5.54567 -2.38468,2.19646 -4.62276,6.11596 -6.24756,9.5955 -1.6101,3.44805 -2.56742,6.34387 -2.56742,6.34387 9.52342,-3.0871 24.48178,-0.74698 32.941,-8.21369 z m -13.63208,18.66754 c 5.92246,-6.32781 6.30763,-14.51665 6.30763,-14.51665 -8.25729,2.03422 -12.8556,1.7591 -17.84849,2.2463 -4.55704,0.44467 -8.54838,1.57629 -13.27851,6.78997 -4.37672,4.82414 -7.36734,16.59762 -7.36734,16.59762 9.22224,-3.83086 24.40048,-2.7981 32.18671,-11.11724 z m -12.05918,19.95799 c 5.43825,-6.85354 5.09933,-15.09816 5.09933,-15.09816 -8.01655,2.78035 -12.76927,2.92474 -17.63958,3.81471 -4.51388,0.82484 -8.37709,2.27158 -12.656643,7.81703 -2.57256,3.33352 -4.366312,9.42797 -5.292406,13.43051 -0.534396,2.09285 -0.802872,3.54045 -0.802872,3.54045 1.379337,-0.66668 2.91,-1.23646 4.53799,-1.75414 8.938951,-2.95458 20.773361,-4.21308 26.754181,-11.7504 z m -10.60419,20.88347 c 0.25129,-0.35526 0.48787,-0.71206 0.71066,-1.06954 0,0 0,0 0,0 4.18398,-6.93713 3.31261,-14.37947 3.31261,-14.37947 -9.37286,4.11287 -15.34568,4.112 -20.489086,6.16489 -3.113317,1.19667 -6.01516,3.2058 -9.016112,7.54254 -1.831199,2.64631 -3.148245,6.93548 -3.965314,10.67414 -0.810084,3.70671 -1.101443,6.74163 -1.101443,6.74163 8.624313,-5.22396 23.882705,-6.25016 30.548685,-15.67419 z m -9.33035,21.32184 c 4.41748,-7.44266 3.02737,-15.49431 3.02737,-15.49431 -7.562736,3.86446 -12.385128,4.71796 -17.045194,6.29136 -4.346337,1.46747 -8.044942,3.49257 -11.464613,9.70342 -1.536503,2.79062 -2.409722,7.09463 -2.830635,10.89815 -0.416248,3.76135 -0.371429,6.88732 -0.366754,7.1881 0,0 0,0 0,0 1.78e-4,0.0158 2.94e-4,0.0238 2.94e-4,0.0238 5e-6,-1e-5 0.02302,-0.0183 0.02302,-0.0183 7.958295,-6.30385 22.869236,-8.84178 28.656513,-18.59229 z m -6.970424,21.74377 c 3.412011,-7.71472 1.260851,-15.49949 1.260851,-15.49949 -10.809944,6.79094 -17.400618,6.62971 -22.569168,12.43825 -1.43447,1.60961 -2.764607,3.75281 -3.903223,6.71533 -1.212463,3.15465 -1.455043,7.78069 -1.254268,11.80045 0.197579,3.95577 0.807929,7.06277 0.807929,7.06277 6.326627,-7.30534 19.526042,-11.90698 24.7249,-20.71091 0,0 10e-7,0 10e-7,0 0.344096,-0.57951 0.656155,-1.18049 0.932978,-1.8064 z m -3.711052,21.95939 c 2.085945,-7.85375 -1.100989,-15.19098 -1.100989,-15.19098 -6.23834,5.10704 -11.061933,7.51314 -14.921093,10.17817 -3.741498,2.58376 -6.860676,5.76044 -8.117525,13.02901 -0.590053,3.41238 0.092,8.07688 1.138082,12.05884 1.026742,3.90834 2.322998,6.86147 2.322998,6.86147 2.431365,-4.70308 6.907946,-8.99096 11.156744,-13.29075 4.225377,-4.27608 8.134121,-8.42111 9.521783,-13.64576 z m 0.52273,21.48243 c 0.27151,-7.7259 -4.109642,-14.17896 -4.109642,-14.17896 -5.330553,6.16775 -7.763663,7.95703 -11.540096,11.76063 -2.990348,3.01186 -5.390747,6.10844 -5.915927,11.59494 -0.06763,1.46775 0.01642,3.11537 0.316554,4.92232 0.570057,3.43203 2.518309,7.31322 5.141581,10.67311 2.624909,3.36198 5.405795,5.58067 7.014205,6.73801 0.650157,0.45881 1.03513,0.7008 1.03513,0.7008 -0.09801,-0.47618 -0.177818,-0.96021 -0.240173,-1.45061 -0.599009,-4.65743 0.460357,-9.60687 2.107006,-14.1231 1.637878,-4.49218 3.827741,-8.40966 5.286575,-11.68779 0.518763,-1.62891 0.845497,-3.26224 0.904787,-4.94935 z m 6.444993,15.78136 c -1.443022,-2.71572 -3.362446,-4.5708 -5.102302,-6.05091 -1.708044,-1.45305 -3.172771,-2.43932 -3.172771,-2.43932 -2.363167,4.14048 -4.501257,9.35397 -5.527711,12.47477 -1.173009,3.56637 -1.891589,7.12039 -0.837907,10.8975 0.726819,2.60397 2.366152,5.61477 5.521241,8.67714 3.319544,3.22198 8.73204,5.38118 13.563253,6.36075 3.6948,0.76895 6.47756,0.80791 6.47756,0.80791 -1.67735,-1.9771 -3.03259,-4.39498 -4.13866,-7.00615 -1.74372,-4.08297 -2.79133,-8.4911 -3.66453,-12.57947 -0.86556,-4.05258 -1.50589,-7.60688 -2.758307,-10.40879 -0.112898,-0.24935 -0.232435,-0.49361 -0.359866,-0.73343 z m 14.917253,9.15491 c -0.76179,-0.41924 -1.50667,-0.76655 -2.23833,-1.05864 0,0 0,0 0,0 -2.5534,-1.05339 -5.11428,-1.41093 -7.04978,-1.56876 -1.95421,-0.15937 -3.35708,-0.10158 -3.35708,-0.10158 0.97951,6.14598 3.03518,14.54654 4.35684,17.70333 1.64211,3.95745 4.59966,7.94891 12.05549,10.13038 3.76094,1.1004 8.83378,0.81269 13.28951,-0.181 4.30886,-0.96095 7.44776,-2.43388 7.44776,-2.43388 -5.10564,-2.22708 -9.51768,-6.81169 -13.41805,-11.38054 -3.8891,-4.55565 -7.11802,-8.92542 -11.08636,-11.10931 z m 18.66313,1.36221 c -3.538,-0.19434 -6.56364,0.59888 -8.94305,1.45433 -2.35712,0.84743 -4.00079,1.76244 -4.00079,1.76244 3.78321,4.69734 9.23896,11.26978 11.59106,13.45642 3.27252,3.04229 7.71721,5.61513 15.7616,4.1805 1.80843,-0.32251 3.86159,-1.083 5.92383,-2.15311 5.86562,-3.15553 10.96089,-8.40552 10.96089,-8.40552 -5.48491,-0.49452 -11.56743,-3.17503 -17.41411,-5.5698 -5.13058,-2.19237 -9.4838,-4.48381 -13.87943,-4.72526 z m 18.12568,-7.20772 c -3.2497,1.21958 -5.72408,3.03478 -7.5724,4.72977 -2.08093,2.11995 -3.46036,4.1128 -3.46036,4.1128 2.3299,1.10283 4.84283,2.22251 6.7751,3.0657 4.42175,1.84999 8.54169,3.93157 11.81346,4.76979 3.54914,0.90929 7.51872,0.88408 12.98209,-1.72733 3.1113,-1.48716 6.46444,-4.69772 9.05365,-7.7338 2.54507,-2.98432 4.20427,-5.60262 4.20427,-5.60262 -5.09492,0.41626 -11.21055,-0.87733 -17.19466,-1.8476 -5.99274,-0.97166 -11.70548,-1.60402 -16.60115,0.23329 z m 17.55173,-13.15322 c -3.60835,2.23483 -5.94442,5.15668 -7.44176,7.54163 -1.49787,2.38578 -2.16287,4.27048 -2.16287,4.27048 7.25916,0.61737 10.77247,1.51505 15.44103,2.44073 4.02073,0.79722 7.53196,1.26335 11.6896,-0.26268 1.63924,-0.5961 3.39946,-1.50375 5.33287,-2.82858 2.70061,-1.85055 5.46853,-5.40986 7.55558,-8.5895 2.0684,-3.15122 3.41622,-5.83077 3.41622,-5.83077 -8.81299,1.42389 -21.54263,-1.73762 -30.75513,1.75758 0,0 0,0 0,0 -1.06995,0.40155 -2.09673,0.89489 -3.07554,1.50111 z m 16.18384,-16.29875 c -6.86146,5.43705 -8.34873,13.3954 -8.34873,13.3954 8.67822,-0.8034 12.83528,0.0668 18.04957,0.30005 4.62022,0.20671 8.65277,-0.33921 14.07797,-4.6244 2.08437,-1.64638 4.18312,-4.51413 5.90445,-7.26926 0,0 1e-5,-10e-6 1e-5,-10e-6 2.33946,-3.72434 3.98399,-7.22096 3.98399,-7.22096 -3.4141,0.57324 -7.52121,0.5162 -11.7784,0.52706 0,0 0,0 0,0 -7.79513,0.0201 -16.06108,0.27417 -21.88886,4.89212 z m 15.71107,-18.03511 c -1.64294,1.3902 -2.95012,2.90748 -3.98898,4.41169 0,0 0,0 0,0 -3.42409,4.93166 -4.00647,9.79573 -4.00647,9.79573 6.09618,-1.13508 10.46829,-1.07411 14.33421,-0.92618 6.51202,0.24927 10.87918,0.68111 17.55882,-4.52866 2.35965,-1.8404 4.81181,-5.35503 6.67315,-8.32363 1.87111,-2.98418 3.19555,-5.48987 3.19555,-5.48987 -9.5823,0.95852 -24.49864,-2.78109 -33.76628,5.06092 z m 16.44864,-18.51494 c -7.5824,5.91011 -8.62286,14.38779 -8.62286,14.38779 8.22364,-1.65634 13.61336,-0.81693 18.16366,-0.56873 4.66757,0.2546 8.33915,-0.10731 13.78638,-3.68477 0.0337,-0.0221 0.0674,-0.0445 0.10115,-0.0673 2.37698,-1.58973 5.01987,-4.7641 7.05624,-7.38942 2.061,-2.65705 3.60467,-4.88408 3.60467,-4.88408 -6.68183,-0.30473 -16.00706,-3.03442 -24.50025,-1.7114 -3.4631,0.53332 -6.76455,1.71637 -9.58899,3.91788 z m 18.56922,-17.73104 c -6.66094,4.03254 -9.24645,10.29716 -10.03288,12.74944 0,0 0,0 0,0 -0.22887,0.71164 -0.31777,1.12907 -0.31777,1.12907 0.43225,-0.0618 0.85624,-0.11648 1.27223,-0.16457 7.75809,-0.91041 13.11219,0.52015 17.27714,1.22072 4.48237,0.75396 7.94093,0.80189 13.52211,-1.71372 3.12402,-1.4081 7.93928,-5.88201 10.26153,-7.99686 1.72892,-1.40743 2.67216,-2.39307 2.67216,-2.39307 -1.39254,-0.0825 -2.84959,-0.30001 -4.32429,-0.64 -8.52278,-3.07827 -20.47382,-8.15808 -30.33023,-2.19101 z M 257.11092,243.943 c -0.18904,0.0572 -0.37286,0.11454 -0.55141,0.17183 0,0 0,0 0,0 -9.28702,3.83654 -12.24733,11.79958 -12.24733,11.79958 10.36205,-0.0483 17.1872,4.11185 21.56234,5.30132 3.40348,0.48621 7.07805,-0.11629 11.56178,-2.21637 0.69989,-0.32781 1.40492,-0.74518 2.09549,-1.21359 5.18658,-3.46054 10.65689,-10.06191 10.65689,-10.06191 -5.90601,-0.81977 -13.58786,-3.75254 -21.07081,-4.59702 -4.61812,-0.4759 -8.80493,-0.15208 -12.00695,0.81616 z m 19.23785,-13.23802 c -5.09619,2.38575 -8.15762,6.1128 -9.83662,8.75398 -1.27862,1.92167 -1.74006,3.27767 -1.74006,3.27767 1.54343,0.0874 2.93293,0.1902 4.31357,0.34488 0,0 10e-6,0 10e-6,0 10.77907,1.31521 15.28343,5.13534 22.52904,4.16469 0,0 0,0 0,0 1.55165,-0.2089 3.19243,-0.61826 5.0596,-1.26171 2.80468,-0.96654 6.61589,-3.81098 9.1428,-5.65359 2.12177,-1.49497 3.61087,-2.65422 3.61087,-2.65422 -1.8003,-0.88855 -3.87612,-2.03971 -6.1651,-3.20975 -6.66618,-3.39382 -15.05645,-6.83225 -23.10444,-5.05121 -1.29982,0.2878 -2.57507,0.71129 -3.80967,1.28926 z m 23.55439,-12.85043 c -1.21841,0.29131 -2.34888,0.6769 -3.38642,1.12467 0,0 0,0 0,0 -8.21702,3.42116 -11.15303,9.78763 -11.15303,9.78763 9.00374,0.80248 14.13848,4.05307 18.07451,6.10262 4.19822,2.19534 6.46409,2.86445 11.48071,3.3208 0.84591,0.077 1.77823,0.0167 2.69724,-0.0544 4.81475,-0.51489 11.43231,-1.84139 11.43231,-1.84139 -3.40365,-3.91211 -6.9321,-9.97715 -12.31904,-14.49905 -4.49233,-3.48099 -10.69828,-5.40605 -16.82628,-3.94089 z m 29.08538,-3.48494 c -4.88329,-1.10954 -9.37896,-0.38612 -12.62375,0.70618 -4.11396,1.29842 -6.05907,3.0989 -6.05907,3.0989 2.64584,1.0319 4.74766,2.27561 6.42168,3.58313 4.17821,3.53706 6.66828,7.7113 8.6673,10.30081 2.28273,2.95704 4.62261,5.10052 9.47231,7.06705 2.03644,0.82576 5.0656,1.21851 7.90139,1.45118 0,0 0,0 0,0 4.14322,0.34915 8.18054,0.44447 8.18054,0.44447 -1.95743,-3.02283 -3.54488,-6.93761 -5.57213,-10.95171 -3.37803,-6.68238 -8.06955,-13.8099 -16.38827,-15.70001 z m 26.03646,5.09942 c -2.20438,-1.0177 -4.4379,-1.60089 -6.54875,-1.88467 -6.31038,-0.86316 -10.95013,1.09993 -10.95013,1.09993 4.19415,4.23692 6.35513,8.36864 7.80955,11.55104 2.83433,6.20899 3.76501,10.53859 11.52112,14.64432 2.35126,1.24465 5.97482,2.04492 9.43109,2.49662 0,0 0,0 0,0 4.11712,0.5442 7.47563,0.57286 7.47563,0.57286 -1.44569,-2.67638 -3.06616,-6.54159 -4.75573,-10.19754 -3.32085,-7.06184 -6.61328,-14.88027 -13.98278,-18.28256 z m 23.5405,7.02535 c -2.04835,-1.00275 -4.03655,-1.58229 -5.84211,-1.89089 0,0 0,0 0,0 -5.72329,-1.00964 -10.61838,0.36151 -10.61838,0.36151 3.56109,5.07784 5.38716,9.56364 6.83934,13.01104 1.21841,2.95365 2.11166,5.35939 3.54729,7.64571 1.49095,2.37442 3.20517,4.07271 5.90066,6.21578 0.76034,0.60452 1.70201,1.1452 2.65645,1.65983 1.13358,0.6342 2.06104,0.8857 2.56649,1.04522 0.3732,0.0746 0.66213,-0.21063 0.77936,-0.50013 0.25353,-0.45924 0.58911,-0.34297 0.58911,-0.34297 0.76834,-0.11548 1.64941,-0.37184 2.46775,-0.8506 1.37652,-0.82354 2.32418,-2.55967 2.71078,-4.73429 0.45283,-2.68507 0.0332,-5.77538 -0.96045,-8.73016 -1.74763,-5.35385 -5.36613,-10.31009 -10.63629,-12.89005 z m 27.27603,20.76822 c -0.11119,-0.48066 -0.24155,-0.96149 -0.39066,-1.44169 -1.22712,-3.47372 -3.03283,-6.06199 -4.98421,-7.82344 -2.95408,-2.68668 -5.70064,-3.93618 -7.85646,-4.51301 0,0 0,0 0,0 -3.95638,-1.05774 -6.49874,-0.68753 -6.49874,-0.68753 1.47425,2.35559 2.46058,4.54138 3.10889,6.55537 1.18696,3.57726 1.25672,6.57749 0.72986,8.97047 -0.49395,2.14371 -1.50634,3.88326 -2.73378,4.61788 -0.85742,0.49907 -1.76295,0.73335 -2.47835,0.86218 -0.52228,0.18712 -1.16348,0.48791 -1.75336,1.30122 -0.14734,0.20782 -0.30175,0.42963 -0.46253,0.66537 -0.93506,1.37107 -2.1227,4.46 -3.09713,7.85469 -1.31066,4.30323 -1.81946,8.1388 -1.81946,8.1388 2.9696,-1.74167 6.67131,-2.93577 10.54342,-4.03618 4.78056,-1.35777 10.15011,-2.55736 14.30941,-6.74702 1.44758,-1.48121 2.71025,-3.55192 3.44406,-6.46628 0.508,-2.14193 0.55413,-4.59196 -0.061,-7.25083 z m -7.24203,30.91748 c 0.97592,-1.50242 1.69274,-3.01903 2.22364,-4.49309 0,0 0,0 0,0 1.08596,-2.84825 1.57048,-5.84006 1.66955,-8.33808 0.096,-2.41926 -0.18672,-3.95623 -0.18672,-3.95623 -5.1465,4.42445 -11.31947,5.48425 -14.39343,6.22284 -5.68319,1.36715 -10.54672,2.73778 -14.76682,10.48905 -1.42092,2.6099 -2.27146,6.4669 -2.65439,10.15747 -0.38623,3.72227 -0.26684,6.86717 -0.18298,8.28116 0,0 0,0 0,0 0.0209,0.42702 0.0396,0.66047 0.0396,0.66047 0.18634,-0.18755 0.37786,-0.3739 0.57427,-0.55886 7.7147,-6.96804 21.89134,-9.55723 27.6773,-18.46473 z m 152.78089,-22.44129 c 1.14079,-0.06 2.22452,-0.20556 3.24842,-0.41324 0,0 0,0 0,0 3.50127,-0.69823 6.21361,-2.13265 8.01842,-3.28833 1.83168,-1.17288 2.89394,-2.16847 2.89394,-2.16847 -6.43984,-4.58499 -10.68072,-8.22546 -14.39909,-11.09611 -3.56243,-2.72973 -7.18103,-4.53662 -13.96668,-4.14218 -0.96905,0.0563 -2.03805,0.2453 -3.15166,0.5262 -5.89049,1.48397 -13.05667,5.65419 -13.49425,5.91513 -0.014,0.008 -0.0212,0.0127 -0.0212,0.0127 10e-6,0 0.0283,0.0119 0.0283,0.0119 0,0 0,0 10e-6,0 5.5309,2.32804 11.43932,7.40615 17.74518,10.91496 4.18928,2.33182 8.53508,3.96731 13.09864,3.72745 z m -22.84693,5.76226 c 4.76868,-0.52278 8.55349,-2.52794 11.06236,-4.28814 2.13492,-1.49739 3.31328,-2.80593 3.31328,-2.80593 -1.70577,-0.78413 -3.22768,-1.56724 -4.61587,-2.35019 0,0 0,0 0,0 -8.15586,-4.5985 -11.29692,-9.15144 -17.64937,-10.58753 -1.65082,-0.37456 -3.5826,-0.53094 -5.92896,-0.33264 -0.52459,0.0307 -1.12993,0.0986 -1.82369,0.22113 -0.68726,0.12142 -1.48839,0.33249 -2.40258,0.64886 -3.97634,1.38747 -7.80042,4.07539 -10.7644,6.89171 -2.84677,2.70495 -4.48729,5.10347 -4.48729,5.10347 7.40661,-0.95931 15.51831,2.33466 22.12606,5.2082 1.06984,0.56502 2.19554,1.12677 3.54209,1.48019 1.79718,0.54098 3.62699,0.8869 5.53152,0.91054 0.69447,0.009 1.39318,-0.0225 2.09685,-0.0997 z m -17.57002,7.78967 c 3.71634,-1.88002 6.20928,-4.74908 7.75334,-6.69283 0.62443,-1.09142 1.41426,-1.95873 1.41426,-1.95873 -1.03138,-0.42709 -1.96244,-0.93632 -2.74237,-1.36493 -4.61961,-2.09555 -10.23463,-4.29229 -13.45855,-5.05266 -3.80065,-0.8964 -7.99933,-0.97699 -12.94738,2.18928 0,0 0,0 0,0 -0.97576,0.62582 -1.98818,1.38166 -3.02277,2.28476 -2.39722,2.09254 -4.55482,5.46767 -6.11529,8.97503 -1.55995,3.50619 -2.33381,6.6724 -2.6925,8.40266 -0.14728,0.71372 -0.21541,1.12738 -0.21541,1.12738 0.39543,-0.23591 0.80408,-0.46105 1.22454,-0.67601 7.95039,-4.10633 18.36261,-4.04737 25.99459,-5.65381 1.75521,-0.36526 3.3511,-0.84335 4.80754,-1.58014 z m -11.25084,14.94191 c 2.21961,-2.99983 3.20432,-6.08266 3.75827,-8.52505 0.55326,-2.43941 0.66096,-4.29288 0.66096,-4.29288 -3.60755,0.35601 -11.92819,1.43341 -13.79658,1.71709 -3.72916,0.5662 -7.08273,1.29897 -10.04764,3.44938 -2.06552,1.48616 -4.12503,3.77259 -5.95886,7.33774 -1.67958,3.2653 -2.39559,8.06275 -2.47642,12.32234 -0.0788,4.15275 0.43835,7.38365 0.43835,7.38365 3.43177,-3.84916 8.69605,-6.83646 13.81643,-9.64451 5.09972,-2.79671 9.92209,-5.29941 12.99949,-8.98175 0,0 0,0 0,0 0.21023,-0.24914 0.41227,-0.50419 0.606,-0.76601 z m -5.46481,19.58069 c 1.16414,-3.72558 1.09636,-7.17428 0.78005,-9.81649 -0.31581,-2.63804 -0.90611,-4.48025 -0.90611,-4.48025 -6.70123,3.88071 -11.64002,6.10303 -15.64741,8.61429 -3.84707,2.41079 -7.22152,5.67477 -8.54156,13.17977 -0.4315,2.45328 -0.21799,5.58444 0.37249,8.66487 0.37337,3.52138 1.7709,6.91529 3.4331,9.67311 1.59991,2.65446 3.11566,4.24056 3.11566,4.24056 -1.02913,-6.54698 2.18893,-11.18548 5.80525,-14.89497 4.88251,-5.04104 9.86515,-9.66561 11.58853,-15.18089 z m 0.30033,17.48507 c 0.26886,-0.69448 0.09,-1.73462 -0.64554,-3.19725 -1.20549,-4.27078 -3.35757,-7.36178 -3.35757,-7.36178 -3.25303,3.60555 -5.41086,5.77743 -7.95552,8.2604 -2.06225,2.00068 -3.89373,4.02893 -4.96466,6.42708 -1.0401,2.3291 -1.5419,5.42997 -0.0389,9.49247 0,0 0,0 0,0 1.43229,3.00099 4.21901,6.45473 8.75257,8.60783 1.11994,0.53189 2.3956,0.96275 3.79967,1.23972 5.59891,0.99242 10.67688,0.002 14.42323,-1.72874 4.04058,-1.73227 6.52937,-3.62696 6.52937,-3.62696 -2.81084,-0.58162 -5.69651,-1.81637 -8.39878,-3.45484 -3.98802,-2.39286 -7.84207,-5.84558 -9.2732,-9.24842 -0.81706,-2.41387 -0.41334,-4.40337 0.75648,-4.83433 0.14025,-0.16887 0.28343,-0.34426 0.37282,-0.57518 z m 6.58638,-1.41684 c -0.94453,0.13117 -1.78797,0.30723 -2.55221,0.50612 -2.38676,0.47418 -3.76421,1.88832 -4.46211,2.45941 0,0 0,0 0,0 -0.43573,0.70058 -1.04081,1.216 -1.04081,1.216 -0.063,0.84331 0.0793,1.73742 0.35091,2.58175 0.88218,2.1864 2.7513,4.23888 4.3127,5.72724 1.61972,1.54394 3.42553,2.96449 5.05458,3.98409 3.91892,2.47923 8.3965,3.80362 15.0962,1.65226 0.44136,-0.13789 0.89383,-0.29164 1.35723,-0.46228 3.45437,-1.27202 7.23314,-4.32971 10.17683,-7.42565 2.86918,-3.01758 4.66885,-5.75854 4.66885,-5.75854 -7.95272,0.83359 -17.84606,-3.02371 -25.92366,-4.22866 -2.60577,-0.40832 -4.94152,-0.54294 -7.03851,-0.25174 z m 16.89078,-10.4629 c -3.40199,1.97087 -5.63961,4.52225 -7.19475,6.68056 -1.55097,2.15253 -2.36438,3.90789 -2.36438,3.90789 7.56241,1.69104 12.70459,3.39323 17.35704,4.24556 4.46088,0.81724 9.16903,0.68188 15.19925,-4.00303 0.12191,-0.0947 0.24409,-0.19334 0.36645,-0.29573 3.24375,-2.68322 6.12176,-7.49472 7.92568,-12.01361 1.40669,-3.34977 1.88872,-6.29054 1.88872,-6.29054 -2.12332,1.59257 -4.58845,2.55378 -7.182,3.17907 -5.62416,1.39926 -11.70039,1.26932 -17.00699,1.93656 -3.33304,0.41866 -6.35945,1.12988 -8.98902,2.65327 z"
           id="path11614-4"
           sodipodi:nodetypes="cssccssssssccssc"
           inkscape:original-d="m 219.54472,197.06694 c 31.90655,-16.41803 60.53779,-45.79131 59.32012,-82.14109 -0.81409,-24.302179 -33.62667,-21.683519 -52.62261,-14.15324 -21.17325,8.3934 -36.27834,22.86825 -54.60329,36.81973 -29.31048,23.46477 -53.6908,59.09856 -69.51646,93.05572 -14.696028,29.9576 -27.023722,66.10377 -20.138734,99.75441 5.65491,27.63859 40.693754,38.76673 66.098504,27.03587 46.11787,-21.29533 69.03369,-78.18009 114.21466,-102.79055 10.67055,-5.81234 34.40678,-27.54216 54.66105,-28.64128 20.25427,-1.09912 38.59379,6.27867 52.48523,10.20434 32.00122,9.04342 27.45457,17.42211 20.4426,32.33263 -11.99428,25.5051 -9.51999,37.65153 -12.38377,47.71932 m 187.10267,-75.00186 c -13.09743,1.42493 -43.96647,9.75022 -49.61583,12.00767 -24.87115,9.93837 -34.90183,40.06135 -32.85993,65.76773 2.73984,34.49315 57.35759,-2.55793 61.26652,-25.96847"
           inkscape:path-effect="#path-effect46744" />
        <path
           style="fill:#ffa200;fill-opacity:1;stroke:#692116;stroke-width:5;stroke-linecap:butt;stroke-linejoin:miter;stroke-miterlimit:4;stroke-dasharray:none;stroke-opacity:1"
           d="m 332.07566,226.55917 c -1.20126,-1.80641 -2.67398,-3.40188 -4.3058,-4.76249 0,0 -10e-6,0 -10e-6,0 -4.77697,-3.65042 -9.54927,-4.47808 -12.70007,-4.45533 -3.19308,0.0231 -4.94116,0.78405 -4.94116,0.78405 3.83633,2.86604 5.80274,6.27869 6.70736,8.96433 0.92342,2.74142 0.94667,5.23563 0.69357,7.22258 -0.47054,4.1085 -1.78623,6.75238 -1.64083,10.51447 0.0143,0.33649 0.0329,0.68631 0.0555,1.05352 0.11123,1.81063 1.35226,5.5062 2.28495,8.33123 0.84448,2.64819 1.50079,4.8513 1.50079,4.8513 1.58467,-1.69294 3.58805,-3.45003 5.65868,-5.4543 4.12035,-4.00425 8.85208,-9.18349 9.48785,-16.48537 0.27611,-3.31967 -0.44795,-7.02583 -2.80083,-10.56399 z m 9.43554,29.9396 c 0.15443,-1.45699 0.15736,-2.883 0.0429,-4.25176 0,0 0,0 0,0 -0.32501,-4.34714 -1.96563,-8.00838 -3.57322,-10.51063 -1.59385,-2.48088 -3.02016,-3.68346 -3.02016,-3.68346 -0.90641,4.64617 -2.90035,7.90477 -4.65152,10.12672 -1.76948,2.24519 -3.77777,4.02018 -5.33832,5.46407 -3.40396,3.13617 -5.72864,5.52763 -7.4193,11.42504 -0.18735,0.65351 -0.321,1.38745 -0.41463,2.17459 -0.65474,5.43983 0.19483,13.89939 0.19483,13.89939 4.70869,-3.60885 12.16352,-6.87939 17.70523,-12.26628 3.30053,-3.21052 5.93016,-7.2449 6.47416,-12.37768 z m -2.33203,26.61501 c 1.87291,-5.47715 1.23421,-10.58647 0.34909,-13.82757 -0.63349,-2.33552 -1.38411,-3.70803 -1.38411,-3.70803 -1.02765,1.25917 -2.05686,2.35216 -3.05187,3.30331 -4.65157,4.44343 -9.35982,6.55737 -12.53062,8.48015 -3.48388,2.11264 -6.08084,4.39535 -8.53097,9.67553 -1.1919,2.56862 -1.78391,6.73759 -2.12395,10.16798 -0.35649,3.45218 -0.4497,6.24885 -0.4497,6.24885 2.29386,-1.39644 5.14576,-2.65185 8.14935,-3.99647 7.61955,-3.41103 16.5753,-7.57791 19.57278,-16.34375 z m -6.25007,24.87769 c 0.6886,-1.41246 1.18894,-2.8217 1.54277,-4.18534 0,0 0,0 0,0 1.86937,-7.09759 -0.21201,-12.8741 -0.21201,-12.8741 -5.89358,4.99192 -11.18892,6.85918 -15.0155,8.41959 -4.79267,1.95457 -8.14119,3.69187 -11.73987,9.65176 -1.95625,3.23982 -3.30635,9.96484 -3.9464,13.22071 -0.12029,1.14384 -0.24829,1.91414 -0.24829,1.91414 0.93695,-0.19164 1.94502,-0.38476 3.038,-0.62532 8.78977,-2.84473 21.6354,-5.37641 26.5813,-15.52144 z m -9.24462,24.23556 c 0.1163,-0.18154 0.22947,-0.36418 0.33956,-0.54782 5.21647,-8.32698 3.15119,-16.57965 3.15119,-16.57965 -9.50945,6.37691 -15.76739,6.042 -21.03016,8.31969 -2.57766,0.8192 -4.48054,1.71382 -7.1638,3.50633 -1.52624,1.01957 -3.53355,3.45206 -5.12363,5.18866 -1.85312,1.93697 -3.54317,3.5361 -3.54317,3.5361 2.23629,1.07441 4.93226,2.45604 8.18615,3.53227 3.82528,1.26407 8.36572,2.02951 12.93845,1.17871 4.55506,-0.8475 9.1743,-3.34027 12.24541,-8.13429 z m -22.2458,22.37248 c 2.01579,-0.70891 3.80624,-1.68502 5.35131,-2.79736 0,0 0,0 0,0 3.70513,-2.60327 5.89876,-5.8242 7.1001,-8.27651 1.20216,-2.45397 1.45522,-4.11381 1.45522,-4.11381 -7.71178,2.65301 -13.65744,0.7521 -17.03642,-0.5211 -2.41972,-0.9122 -4.43453,-1.84656 -6.48013,-2.48992 -2.18972,-0.68868 -3.97133,-0.95912 -6.55215,-1.18144 -0.96162,-0.0828 -2.06427,0.0439 -3.16365,0.17859 -1.55016,0.17313 -3.2794,0.49573 -4.64142,0.63583 -1.36233,0.14014 -2.33694,0.13253 -2.33694,0.13253 0.46598,3.79212 2.25123,9.98801 7.49788,14.49963 4.5787,3.99626 11.57385,6.47699 18.8062,3.93356 z m -33.01757,2.34974 c 5.31151,2.78523 10.61975,2.74597 14.48593,1.78561 5.10437,-1.26991 7.52135,-3.61594 7.52135,-3.61594 -3.42314,-1.16168 -5.95715,-2.79875 -7.79504,-4.42746 0,0 0,0 0,0 -3.68077,-3.21347 -5.25161,-7.25682 -6.17979,-9.82506 -0.60804,-1.68243 -2.19937,-6.37787 -2.42067,-7.35884 -0.10752,-0.2271 -0.21673,-0.46374 -0.32736,-0.71405 -0.53803,-1.21735 -1.88142,-2.76036 -3.13592,-4.73066 -1.265,-1.98681 -2.37811,-4.01133 -2.37811,-4.01133 -2.01906,2.45094 -5.11205,5.59085 -7.15448,9.79 -2.02201,4.15715 -3.02381,9.50148 -0.47804,15.20899 1.60844,3.14724 4.28186,6.02134 7.86213,7.89874 z m -21.53586,-27.06699 c 0.44038,6.33804 3.87614,11.28716 7.10804,14.22559 3.2256,2.93269 5.88013,3.74592 5.88013,3.74592 -2.44564,-8.11235 0.83308,-13.64704 2.71686,-16.39835 2.41607,-3.52875 4.40136,-5.26267 5.78373,-8.56484 0.52024,-1.45537 0.91187,-3.1021 1.19221,-5.07959 0.3866,-2.72693 -0.23156,-6.79351 -0.81433,-10.02851 -0.59351,-3.29457 -1.19886,-5.95852 -1.19886,-5.95852 -5.90141,5.85655 -17.46922,12.26907 -20.27003,23.14451 0,0 0,10e-6 0,10e-6 -0.36281,1.53933 -0.51772,3.18705 -0.39775,4.91378 z m -1.24342,-27.04617 c -1.95146,10.04887 3.44555,17.17693 3.44555,17.17693 4.49156,-7.08176 9.45643,-10.36323 12.8326,-12.99056 3.70416,-2.88258 6.15131,-5.34442 8.13075,-11.30692 0.40623,-1.22367 0.63881,-2.73053 0.78196,-4.31171 0.48699,-5.1869 0.20164,-11.46528 0.20164,-11.46528 -4.18022,2.64704 -10.34768,5.17347 -15.6525,9.09208 -4.61319,3.40554 -8.58683,7.86728 -9.74,13.80546 z m 3.70428,-26.31125 c -1.71865,4.19065 -1.8798,8.23528 -1.52066,11.34516 0.44729,3.96019 1.69123,6.42932 1.69123,6.42932 2.0254,-2.23676 3.9998,-3.93598 5.83518,-5.27329 4.37386,-3.18895 8.08191,-4.51242 11.1942,-6.257 3.21273,-1.80089 5.54003,-3.81966 8.15277,-8.07751 1.33232,-2.17123 2.37973,-6.0246 3.17566,-8.92356 0.82764,-2.95589 1.45,-5.38454 1.45,-5.38454 -2.44522,0.60504 -5.41017,1.07875 -8.56886,1.78524 -8.05098,1.81385 -17.69941,5.30967 -21.40952,14.35618 z M 259.4606,250.9543 c -1.06729,1.37132 -1.90961,2.79693 -2.56313,4.20766 0,0 0,0 0,0 -3.47239,7.39843 -1.90837,13.61609 -1.90837,13.61609 6.47794,-4.66641 12.12541,-5.68558 16.10557,-6.43797 5.28448,-0.98989 8.2205,-1.60762 13.07924,-5.49953 1.87895,-1.50507 4.95647,-5.87063 6.50696,-7.81746 0.98923,-1.5529 1.82524,-2.66886 1.82524,-2.66886 -1.43066,-0.42367 -3.08857,-0.97604 -4.97617,-1.48565 -8.17906,-2.14118 -20.76569,-3.29847 -28.06934,6.08572 z"
           id="path11614-5"
           sodipodi:nodetypes="ccscc"
           inkscape:original-d="m 309.05132,226.71672 c 35.98926,4.51282 16.48425,73.18741 4.12063,99.9489 -11.65141,25.2199 -51.71982,31.22031 -55.0679,-2.76324 -4.72878,-47.99789 14.10761,-89.93724 49.00273,-92.23591 l 1.22513,0.32074"
           inkscape:path-effect="#path-effect20797" />
        <path
           style="fill:#ffa200;fill-opacity:1;stroke:#692116;stroke-width:5;stroke-linecap:butt;stroke-linejoin:miter;stroke-miterlimit:4;stroke-dasharray:none;stroke-opacity:1"
           d="m 614.92702,164.57254 c 1.23542,-1.40997 2.19632,-2.8676 2.95006,-4.29067 1.06998,-2.01751 1.69029,-3.94154 2.07108,-5.50224 0.6676,-2.48449 0.43466,-3.93278 0.43466,-3.93278 -1.59562,-0.0563 -3.5742,0.28112 -5.16471,0.54301 0,0 0,1e-5 0,1e-5 -3.99455,0.62442 -6.21638,0.82944 -9.32411,1.13894 -5.98466,0.59607 -10.53504,1.19485 -16.00583,7.54657 -0.598,0.69428 -1.17244,1.53405 -1.71568,2.46157 -3.19307,5.44796 -5.23742,13.89232 -5.23742,13.89232 5.58075,-2.28675 13.47164,-2.98231 20.45306,-5.13317 4.49958,-1.3874 8.59791,-3.36706 11.53889,-6.72356 z M 603.11479,185.032 c 3.0623,-3.90507 4.25111,-8.14544 4.71144,-11.18103 0.37664,-2.47273 0.26075,-4.14119 0.26075,-4.14119 -1.65725,0.64426 -3.19788,1.17118 -4.65642,1.61075 -11.8454,3.56679 -18.00865,0.89267 -25.54071,10.34603 -3.91528,4.914 -6.31981,16.55272 -6.31981,16.55272 9.02651,-4.05673 24.34105,-4.00106 31.54475,-13.18728 z m -11.07431,21.07844 c 5.29552,-7.27464 4.41645,-15.54282 4.41645,-15.54282 -15.1546,6.65889 -21.51455,1.99394 -29.74301,13.0393 -0.52774,0.70841 -1.02487,1.5533 -1.48842,2.48198 -2.80573,5.61573 -4.29934,14.24836 -4.29934,14.24836 5.44336,-2.66135 13.32083,-3.87019 20.16322,-6.5512 4.34622,-1.70281 8.27615,-4.00096 10.9511,-7.67562 z m -10.40455,21.47117 c 2.82881,-4.15158 3.72213,-8.52539 3.96282,-11.60761 0.19265,-2.45523 -0.0336,-4.0834 -0.0336,-4.0834 -1.56832,0.75411 -3.03966,1.38306 -4.43076,1.91727 -11.66074,4.47829 -17.97161,2.10138 -24.89567,12.08941 -3.58443,5.17058 -5.19512,17.00175 -5.19512,17.00175 8.72638,-4.73399 24.0052,-5.65006 30.59238,-15.31742 z m -9.61456,21.72919 c 4.74359,-7.57397 3.33437,-15.76018 3.33437,-15.76018 -7.43501,3.86944 -12.52931,4.71848 -17.06219,6.10482 -4.39837,1.34521 -8.02234,3.16588 -11.7122,9.02159 -1.44272,2.28957 -2.48913,5.79275 -3.19218,9.07676 0,0 0,0 0,0 -0.92994,4.34003 -1.23542,8.23834 -1.23542,8.23834 2.96731,-1.83143 6.75628,-3.22911 10.6974,-4.68444 0,0 0,0 0,0 7.35326,-2.71508 15.16373,-5.59983 19.17022,-11.99689 z m -8.58635,22.01296 c 0.9927,-1.77282 1.66438,-3.55066 2.11199,-5.24753 0,0 10e-6,0 10e-6,0 1.5145,-5.73742 0.45914,-10.57612 0.45914,-10.57612 -5.43491,3.11881 -9.65862,4.52991 -13.36568,5.72845 -5.96255,1.928 -10.47881,3.23921 -14.64677,10.84918 -1.5436,2.81834 -2.41639,7.24009 -2.85295,11.04556 -0.43255,3.74821 -0.42475,6.80373 -0.42475,6.80373 2.27385,-1.71824 5.10889,-3.16084 8.13488,-4.56829 7.71028,-3.5908 16.53251,-6.79929 20.58413,-14.03498 z m -7.06788,22.1731 c 0.59841,-1.29207 1.03782,-2.57547 1.35504,-3.82642 0,0 0,0 0,0 1.62006,-6.35743 0.0627,-11.9126 0.0627,-11.9126 -6.50062,4.20312 -11.10048,5.70553 -15.29597,7.49595 -4.5953,1.95816 -8.44625,4.19304 -11.3946,11.30296 -1.08292,2.61143 -1.53455,6.37219 -1.59426,9.93972 0,0 0,0 0,0 -0.2557,6.303 1.53412,11.04718 1.53412,11.04718 1.7622,-3.82067 4.93882,-7.08815 8.56123,-9.48193 0,0 0,0 0,0 6.60185,-4.16905 13.74495,-8.02951 16.77173,-14.56486 z m -3.79704,19.99694 c 0.25887,-1.27171 0.3339,-2.35094 0.32402,-3.37017 0,0 0,0 0,0 0.21603,-5.45431 -1.53917,-9.90292 -1.53917,-9.90292 -4.84785,3.76493 -8.54323,5.82999 -11.97365,7.80781 -2.73646,1.66426 -5.16246,3.67922 -6.72024,6.47596 -1.52804,2.74334 -2.55544,6.91871 -1.34531,12.50478 0.039,0.17989 0.0823,0.36223 0.13008,0.54674 0.6609,2.8237 2.29596,5.96106 4.66322,8.84929 2.39053,2.91663 5.10102,5.08122 7.4771,6.59207 2.2393,1.43227 3.97561,2.03645 3.97561,2.03645 -0.87487,-1.46691 -1.44465,-3.03497 -1.77126,-4.63879 -1.47212,-7.50956 1.509,-14.17866 3.92233,-19.6852 1.29868,-2.81762 2.42485,-5.09176 2.85727,-7.21602 z m 5.83304,12.49993 c -0.0572,-0.0932 -0.11818,-0.18375 -0.18335,-0.27201 -1.78533,-2.33962 -4.80584,-4.40348 -6.76582,-5.66446 -0.59653,-0.39509 -0.98021,-0.619 -0.98021,-0.619 -0.22403,0.41014 -0.43922,0.82057 -0.64551,1.2283 -1.82638,3.78005 -3.19902,7.43135 -3.97642,10.56564 -0.77526,3.12568 -1.11229,6.28338 -0.23534,9.36825 0.70524,2.41526 2.43329,5.33415 6.39441,7.73192 1.70412,1.01241 3.88097,1.8761 6.54687,2.27362 1.2985,0.19362 2.76767,0.24146 4.37195,0.0917 4.17685,-0.53756 7.99153,-2.22669 10.971,-4.80028 4.4114,-3.87897 6.2624,-7.8139 7.04174,-9.83611 0.31999,-0.82755 0.47818,-1.31454 0.47818,-1.31454 -0.49924,0.22798 -1.01427,0.43714 -1.54278,0.62807 -3.76987,1.54636 -8.58952,2.09216 -12.694,1.16758 0,0 0,0 0,0 -2.90522,-0.65253 -5.40566,-2.11608 -6.59899,-3.95373 -0.97061,-1.43484 -1.32105,-2.98295 -1.45267,-4.09966 -0.18011,-0.93656 -0.28562,-1.7728 -0.72906,-2.49528 z m 3.58997,-1.42616 c -1.17994,0.93742 -1.63822,1.61514 -1.91123,2.08346 -0.14899,0.40864 -0.0195,1.37579 -0.02,1.89892 0,0 0,0 0,0 0.008,0.84777 -0.53678,1.50791 -0.53678,1.50791 0.20861,0.89251 0.5668,1.72958 1.05182,2.46967 1.36864,2.17376 4.31687,3.50685 6.67842,4.11448 4.16337,1.07528 8.79825,0.87044 12.53549,-1.32329 0,0 0,0 0,0 2.38635,-1.27564 4.90031,-3.47571 7.22016,-7.09475 1.50442,-2.34696 2.551,-5.6144 3.11986,-8.92264 0.9627,-5.56894 0.6275,-10.44004 0.6275,-10.44004 -3.15045,2.65513 -7.60409,4.98937 -12.08369,7.06581 -6.23608,2.89017 -12.42809,5.15105 -16.15899,8.25223 -0.1861,0.12991 -0.36025,0.25927 -0.52259,0.38824 z m 6.96441,-18.1581 c -0.92066,2.2593 -1.35395,4.3631 -1.54823,6.19959 -0.46693,4.39225 0.45625,8.04661 0.45625,8.04661 4.24236,-1.78984 7.80998,-3.38523 10.90096,-4.70153 0,0 0,0 0,0 3.32885,-1.41765 6.31766,-2.67741 8.71375,-4.45146 2.48318,-1.83855 4.5138,-4.32552 6.23165,-8.40899 0.10748,-0.25104 0.21353,-0.50731 0.31829,-0.7691 1.43512,-3.58611 1.57749,-9.96272 1.72268,-12.93278 0.0793,-1.59904 0.11767,-2.66547 0.11767,-2.66547 -1.09878,0.4998 -2.34956,1.01843 -3.66644,1.5715 -5.98529,2.55809 -13.06107,5.83524 -18.30431,11.03039 -2.16022,2.12772 -3.88058,4.47583 -4.94227,7.08124 z m 5.55684,-24.79013 c -0.17095,0.35996 -0.32926,0.71983 -0.47553,1.07876 -1.85582,4.48853 -1.95267,8.57613 -1.61524,11.50138 0.33119,2.87119 1.11271,4.82529 1.2168,5.07945 0.0111,0.0274 0.017,0.0413 0.017,0.0413 -10e-6,0 0.0356,-0.0313 0.0356,-0.0313 4.11908,-3.6339 7.43506,-5.66771 10.65868,-7.23739 3.10785,-1.5133 5.76835,-2.44245 8.14473,-3.66359 2.86125,-1.44544 4.72624,-2.95333 7.29655,-5.69543 0.70078,-0.74762 1.33619,-1.7288 1.94949,-2.71211 3.14462,-4.91491 5.50213,-11.18167 5.50213,-11.18167 -5.02133,1.12236 -11.73727,1.08311 -18.16316,2.04541 -5.82523,1.16418 -11.72664,4.79425 -14.56708,10.77519 z m 13.95113,-24.17647 c -2.97232,2.9189 -4.64714,6.19202 -5.60212,8.9143 -1.83934,4.39886 -1.60596,7.42639 -1.60596,7.42639 2.8597,-1.62268 5.49275,-2.51046 7.79962,-2.95702 5.27705,-0.75561 9.21316,-0.49577 12.82542,-0.95243 3.67243,-0.46426 6.84137,-1.64316 10.93093,-5.08594 1.89631,-1.5964 3.8379,-4.42209 5.43822,-6.94023 2.07839,-3.27356 3.74356,-6.2707 3.74356,-6.2707 -3.1972,0.11007 -7.04792,-0.26585 -11.14983,-0.37778 -7.84352,-0.20969 -16.57032,0.5383 -22.37984,6.24341 z M 605.072,237.58724 c -1.80555,1.36231 -3.26587,2.90193 -4.42879,4.45395 0,0 0,0 0,0 -4.04683,5.39923 -4.46832,10.63125 -4.46832,10.63125 6.31974,-1.68124 11.02416,-1.57856 14.84683,-1.31464 6.57005,0.45771 10.03361,1.18289 16.84012,-2.48875 2.87113,-1.54878 7.61046,-6.53704 9.62274,-8.56363 1.10938,-1.07392 1.80794,-1.79417 1.80794,-1.79417 -1.07876,-0.21799 -2.21126,-0.51401 -3.38807,-0.85658 -8.51209,-2.74517 -21.20441,-7.33186 -30.83245,-0.0674 z m 21.3453,-16.85254 c -0.16118,0.066 -0.3206,0.13357 -0.47825,0.20257 -9.66836,4.33567 -12.12274,12.87816 -12.12274,12.87816 5.77963,-0.53466 10.12154,0.33619 13.44145,1.30064 3.40053,0.98787 6.0338,2.12757 8.76199,2.73202 2.87569,0.54828 5.79257,0.4519 9.83566,-0.68506 2.6326,-0.74031 6.06556,-2.92871 8.72579,-4.6951 2.71904,-1.80543 4.87797,-3.33635 4.87797,-3.33635 -8.24379,-3.67844 -20.85399,-13.38868 -33.04187,-8.39688 z m 23.80802,-11.4714 c -10.32107,2.12979 -14.65185,10.02834 -14.65185,10.02834 8.23755,1.23809 13.14057,4.38974 16.8387,6.48788 4.08832,2.31951 7.01775,3.60895 12.83106,3.54283 0.18541,-7.9e-4 0.37328,-0.003 0.56382,-0.007 2.50448,-0.0476 6.13427,-1.23274 8.9209,-2.12979 2.8854,-0.92884 5.23099,-1.66939 5.23099,-1.66939 -4.59027,-4.64565 -10.6401,-12.73138 -19.81321,-15.61909 -3.13432,-1.00387 -6.5082,-1.33826 -9.92041,-0.63414 z"
           id="path12057"
           inkscape:path-effect="#path-effect12159"
           inkscape:original-d="m 613.90292,145.10383 c -11.78901,13.30163 -64.5276,109.09473 -72.91241,163.17419 -3.19465,20.60454 18.02442,42.89708 31.34771,22.23508 12.02752,-18.6525 7.66553,-41.10823 19.58124,-57.62102 11.34682,-15.72443 22.4788,-31.15652 40.14133,-41.68532 20.91089,-12.46517 40.34192,-18.07351 57.77049,-14.65095"
           sodipodi:nodetypes="cssssc" />
        <path
           style="fill:#ffa200;fill-opacity:1;stroke:#692116;stroke-width:5;stroke-linecap:butt;stroke-linejoin:miter;stroke-miterlimit:4;stroke-dasharray:none;stroke-opacity:1"
           d="m 674.90343,254.8028 c -2.89294,1.13292 -4.759,2.76529 -6.30195,4.19628 -1.52899,1.41804 -2.66045,2.64675 -2.66045,2.64675 4.2606,3.92129 10.94163,7.44022 14.39951,8.64083 4.12775,1.43319 9.46549,1.96357 15.6949,-2.8003 0.43709,-0.32652 0.87972,-0.67954 1.32594,-1.06049 3.20672,-2.73766 5.79533,-7.40523 7.27425,-12.03346 1.42011,-4.44422 1.59478,-8.08266 1.59478,-8.08266 -6.97858,5.88962 -17.45913,6.37615 -25.08511,7.26317 -2.3698,0.23364 -4.44071,0.52451 -6.24187,1.22988 z m 9.92558,-13.24287 c -1.73118,2.71247 -2.44027,5.42767 -2.87117,7.74231 -0.42438,2.27968 -0.5259,4.07582 -0.5259,4.07582 5.95437,-0.27585 13.348,-1.42372 16.78244,-2.46273 4.16356,-1.25959 8.56709,-3.73293 11.06241,-10.85238 0.25452,-0.66977 0.48403,-1.39838 0.67574,-2.18733 1.00096,-4.11936 0.17725,-9.92615 -2.80287,-15.64144 -3.99659,-6.74768 -9.37875,-8.89908 -9.37875,-8.89908 2.12311,4.06884 2.26625,8.89881 0.82106,12.8335 -2.13678,5.56913 -6.3962,8.04919 -9.58696,10.82738 -1.69604,1.50601 -3.12943,2.92415 -4.176,4.56395 z m 0.56116,-10.18603 c 0.0907,0.4792 0.1735,0.64927 0.28747,0.73211 0,0 0,0 0,0 0.62348,0.22818 1.42669,1.29223 2.21969,2.4049 0.76612,1.07496 1.42389,2.00947 1.42389,2.00947 2.34898,-1.6907 4.16234,-3.09548 5.85813,-4.92363 1.58921,-1.71326 2.83016,-3.56937 3.66565,-5.54448 1.61308,-3.9824 1.91001,-10.02653 -3.55452,-14.91474 0,0 0,-1e-5 0,-1e-5 -1.68898,-1.51217 -3.90151,-2.96274 -6.61184,-4.06502 -2.15487,-0.87637 -4.7374,-1.33729 -7.39637,-1.30304 -6.52541,-0.0243 -11.78999,2.11515 -14.30688,3.33466 -0.64963,0.31263 -1.01425,0.50903 -1.01425,0.50903 0.4262,0.15637 0.85101,0.32958 1.27401,0.51817 5.11509,2.11064 9.75814,6.43642 13.1698,10.87181 2.55611,3.34769 4.28524,6.56289 4.78899,8.7773 0.0885,0.69014 0.12738,1.22974 0.19623,1.59347 z M 673.2228,230.315 c 2.7668,0.022 4.92763,-0.59395 6.71672,-1.23031 2.38392,-0.77716 4.13964,-1.95191 4.13964,-1.95191 -0.85059,-2.13593 -2.3857,-4.3855 -3.67566,-6.10443 0,0 0,0 0,0 -3.766,-4.98166 -7.98974,-9.47417 -13.13196,-10.75314 0,0 0,0 0,0 -2.48573,-0.68907 -5.70777,-0.86857 -9.78248,0.1125 -3.81991,0.91973 -8.10934,3.72781 -11.51387,6.9054 -3.28893,3.0697 -5.26809,6.02313 -5.26809,6.02313 5.41849,-0.81867 11.31628,0.73745 16.81091,2.66919 5.44058,1.91274 10.38369,4.16602 14.81197,4.29255 0,0 0,0 0,0 0.30003,0.0221 0.59733,0.0347 0.89282,0.037 z m -16.60083,7.98623 c 3.0038,-1.55557 5.15451,-3.66806 6.78972,-5.59125 1.6093,-1.89274 2.58926,-3.50651 2.58926,-3.50651 -5.71848,-2.23775 -12.94811,-4.96753 -16.3065,-5.74852 -4.24961,-0.98823 -9.18911,-1.07672 -15.09269,3.76262 -0.41508,0.34806 -0.83379,0.72275 -1.25394,1.12538 -3.11429,2.98445 -5.42876,7.90062 -6.54699,12.7726 -1.07085,4.66555 -0.86272,8.40388 -0.86272,8.40388 6.34031,-6.81734 16.83307,-8.02942 24.3055,-9.26116 2.37843,-0.44699 4.48504,-0.97655 6.37836,-1.95704 z m -8.98115,13.79189 c 1.44256,-2.68459 1.9063,-5.2905 2.15086,-7.59912 0.23852,-2.25164 0.21526,-4.03503 0.21526,-4.03503 -6.25373,0.59153 -13.56033,2.29274 -17.08244,3.82495 -4.00429,1.74196 -8.59854,5.24665 -9.64223,14.18045 -0.13346,1.14245 -0.1414,2.42961 -0.0187,3.80524 0.83207,6.39191 3.84982,11.34566 6.67086,14.48814 1.78486,2.02941 3.10953,3.14721 3.10953,3.14721 -0.0268,-1.72082 0.16108,-3.53013 0.5311,-5.35593 1.03489,-5.39097 3.87527,-11.02627 7.29514,-14.32973 2.74268,-3.13779 5.3177,-5.42234 6.7706,-8.12618 z m 2.21399,13.76223 c -0.12412,-0.33309 -0.24987,-0.65104 -0.37621,-0.95478 0,0 0,0 0,-1e-5 -1.03807,-2.74453 -2.78831,-4.26966 -3.76362,-5.24543 0,0 0,0 0,0 -1.0939,-1.36839 -1.95321,-2.37499 -1.95321,-2.37499 -1.02715,0.96841 -1.97404,1.95827 -2.8406,2.93323 0,0 0,0 0,0 -2.16984,2.05945 -4.00944,5.03519 -5.16002,7.2566 -1.2372,2.38865 -2.17901,4.84671 -2.49449,7.26617 -0.50742,3.57785 0.16836,7.68906 3.22702,12.61355 0.33111,0.5331 0.72251,1.06944 1.15949,1.59997 2.21024,2.73996 5.37718,5.19091 7.97006,6.9809 2.56075,1.76781 4.50695,2.89167 4.50695,2.89167 -0.15969,-6.11162 1.25828,-14.78871 1.24287,-22.32804 -0.0164,-4.08609 -0.44349,-7.7546 -1.51824,-10.63884 z m 14.67705,16.41539 c -3.43896,-4.94479 -7.90771,-7.19743 -10.46279,-8.2241 -1.58064,-0.66521 -2.64107,-0.9001 -2.64107,-0.9001 0.005,1.16998 0.008,2.21529 -0.004,3.30106 -0.0873,6.70546 -0.96411,11.44394 -1.31199,15.61105 -0.37205,4.45654 0.1169,7.57061 2.55296,12.61724 0.30007,0.62163 0.6891,1.2551 1.12019,1.88821 1.22821,1.90609 3.33901,4.31938 4.78028,6.00408 1.5321,1.79088 2.67345,3.16474 2.67345,3.16474 2.31343,-4.81484 6.48071,-11.71355 6.84317,-19.7398 0.2571,-4.84501 -0.78958,-9.75241 -3.55058,-13.72238 z m 16.3375,23.33896 c -1.7182,-6.4352 -5.90216,-10.43221 -8.92951,-12.46872 -2.26906,-1.55692 -3.881,-2.08436 -3.881,-2.08436 0.14332,1.77793 0.15594,3.40371 0.0655,4.9055 -0.33527,6.41266 -2.965,11.1407 -4.45632,14.28052 -1.82638,3.84524 -2.59152,6.24419 -2.78205,10.94436 -0.12691,3.13092 1.14236,7.54298 1.24241,10.0247 0.10882,0.95485 0.14077,1.59561 0.14077,1.59561 0.75885,-0.29367 1.57744,-0.60764 2.44851,-0.97124 4.03581,-1.64212 8.71123,-4.3076 12.26574,-8.90885 3.47128,-4.49351 5.63921,-10.75094 3.88594,-17.31752 z m 2.98474,31.04808 c 0.0238,-0.0634 0.0473,-0.12682 0.0704,-0.1903 1.95585,-6.05365 1.04557,-11.50912 -0.24094,-15.00186 -1.30135,-3.53301 -2.93302,-5.2739 -2.93302,-5.2739 -2.26281,5.95364 -5.67391,9.24596 -8.4016,11.21333 -2.5462,1.83648 -5.7963,3.33936 -7.7875,4.39334 -2.21286,1.21086 -3.78079,2.31581 -5.91225,4.26241 -1.26221,1.15274 -2.8015,3.82393 -4.01624,5.59396 -1.32548,1.93138 -2.64904,3.42927 -2.64904,3.42927 3.6308,1.66816 9.22641,3.89164 15.54004,3.38744 6.21843,-0.4966 13.3376,-3.84235 16.33014,-11.81369 z m -19.30449,26.32242 c 5.7937,-2.6893 9.2695,-7.48801 10.83379,-11.15161 1.57379,-3.68584 1.51198,-6.23438 1.51198,-6.23438 -7.1498,4.05187 -13.33328,2.99664 -16.74798,2.14064 -3.93158,-0.98557 -6.76243,-2.12237 -9.93085,-2.70579 -1.22215,-0.0428 -2.48919,0.0122 -3.8949,0.1493 -2.4216,0.2361 -6.70052,2.02167 -8.87062,2.72583 -1.8971,0.61709 -3.30306,1.06866 -3.30306,1.06866 0.92629,1.49081 2.10827,3.26588 3.66921,5.1175 4.54195,5.29789 11.8974,10.65474 20.37942,10.55575 0,0 0,0 0,0 2.10918,-0.16199 4.26762,-0.69791 6.35301,-1.6659 z m -29.70862,7.95176 c 1.37793,0.20541 2.71388,0.25764 3.98412,0.18775 0,0 10e-6,0 10e-6,0 10.47954,-0.51614 15.00568,-6.72473 15.00568,-6.72473 -4.71637,-1.27396 -8.01575,-3.18704 -10.46318,-5.1133 -2.38161,-1.87445 -4.15194,-3.94045 -5.57646,-5.63098 -2.48917,-3.00917 -4.8296,-5.18381 -6.75893,-7.41224 -0.044,-0.0508 -0.0886,-0.10061 -0.13359,-0.14952 -0.93375,-0.87625 -2.63227,-1.571 -4.19252,-2.5464 -1.67928,-1.0526 -3.0813,-2.53856 -3.0813,-2.53856 -0.9796,1.99507 -2.24841,4.38007 -3.07057,7.27629 -1.29962,4.44569 -1.3914,10.46668 2.45347,15.63462 2.66723,3.50551 6.86469,6.2764 11.83327,7.01707 z m -29.72142,-18.16865 c 0.7704,1.85855 1.79517,3.57186 2.98264,5.10661 4.83242,6.13657 11.26046,7.52857 14.14153,7.77084 1.28277,0.0768 1.98292,-0.009 1.98292,-0.009 -0.46412,-0.5362 -0.88609,-1.0724 -1.26836,-1.60487 -2.44534,-3.48126 -3.121,-6.85651 -3.18145,-9.38573 -0.0617,-2.58144 0.4955,-4.82892 1.08798,-6.59972 1.36481,-4.19695 2.80804,-6.43608 3.00085,-10.80079 0.0163,-0.46201 0.0244,-0.9407 0.0262,-1.44552 0.007,-1.96507 -0.93122,-5.54617 -1.54625,-8.17629 -0.66555,-2.84619 -1.19865,-5.33874 -1.19865,-5.33874 -2.65747,2.29025 -6.33921,4.74153 -9.68808,8.05084 -3.34248,3.30298 -6.35969,7.4824 -7.37857,12.72933 -0.55854,2.96989 -0.37276,6.29693 1.03927,9.7034 z m -5.96735,-29.84594 c -1.02362,5.4656 0.24184,10.38611 1.78998,13.74022 1.54592,3.34931 3.26027,5.04616 3.26027,5.04616 2.67833,-8.13777 8.00976,-12.04223 10.99409,-14.3629 3.58947,-2.79125 6.09738,-4.7768 8.27847,-9.72458 0.13157,-0.2768 0.26205,-0.56105 0.39205,-0.85371 1.01184,-2.27792 1.44401,-6.00409 1.80353,-8.82187 0.37164,-2.91278 0.72196,-5.26196 0.72196,-5.26196 -6.23089,1.88828 -16.74498,4.30516 -22.91186,11.51241 -2.07809,2.37077 -3.68119,5.27001 -4.32849,8.72623 z"
           id="path12057-9"
           inkscape:path-effect="#path-effect44602"
           inkscape:original-d="m 666.8511,270.25647 c 16.20178,-1.71238 28.61093,-16.22892 30.98553,-31.92433 2.77121,-18.31686 -13.44978,-23.11653 -28.36206,-19.34541 -21.36899,5.40394 -36.38789,22.47929 -34.12914,41.87594 1.66521,14.2997 19.0268,26.03756 28.21963,38.47055 18.19023,24.60167 8.34092,48.44026 -9.31106,55.62094 -48.80702,19.8543 -50.43545,-37.76641 -33.56688,-62.03531"
           sodipodi:nodetypes="csssssc" />
        <path
           style="fill:#ffa200;fill-opacity:1;stroke:#692116;stroke-width:5;stroke-linecap:butt;stroke-linejoin:miter;stroke-miterlimit:4;stroke-dasharray:none;stroke-opacity:1"
           d="m 354.84959,343.96349 c -2.67661,9.94241 2.27366,17.46462 2.27366,17.46462 4.90225,-6.795 10.1584,-9.75827 13.68578,-12.1175 3.89731,-2.60667 6.5369,-4.88787 8.93154,-10.70258 1.02871,-2.49791 1.43922,-6.55853 1.69182,-9.78924 0.25814,-3.30172 0.36307,-6.01054 0.36307,-6.01054 -4.06195,2.29367 -9.82823,4.26609 -15.12573,7.40397 -5.28568,3.13089 -10.12273,7.44615 -11.82014,13.75127 z m 5.55016,-25.87768 c -4.53995,9.29965 -1.06082,17.62772 -1.06082,17.62772 6.08167,-5.80163 11.79485,-7.73172 15.68816,-9.37645 4.32016,-1.82506 7.29471,-3.53387 10.75767,-8.71408 1.4771,-2.20959 2.67974,-6.07633 3.57233,-9.13928 0.91526,-3.14077 1.58146,-5.74242 1.58146,-5.74242 -4.44693,1.36107 -10.48188,2.09823 -16.28629,4.11987 -5.79041,2.01676 -11.37569,5.33176 -14.25251,11.22464 z m 10.59451,-24.40588 c -6.39058,8.26886 -4.59828,17.14463 -4.59828,17.14463 6.62656,-4.23354 12.23404,-5.1293 16.24472,-5.88209 4.37463,-0.8211 7.53152,-1.54501 11.47584,-4.75575 0.59014,-0.48833 1.19262,-1.02923 1.81898,-1.63232 1.9187,-1.84742 3.94286,-5.38941 5.4865,-8.22416 1.58262,-2.90635 2.79247,-5.34372 2.79247,-5.34372 -7.51369,0.75008 -18.76457,-1.0698 -27.61345,3.88151 0,0 0,0 0,0 -2.11407,1.19959 -4.03598,2.77942 -5.60678,4.8119 z m 15.45591,-21.61792 c -7.88511,6.65631 -8.05213,15.71038 -8.05213,15.71038 7.8635,-2.90644 13.94881,-2.35498 18.1528,-2.28725 4.68908,0.0755 8.15719,-0.27882 13.48619,-3.66572 2.29391,-1.45791 4.9878,-4.54965 7.07522,-7.0748 2.13076,-2.57757 3.78102,-4.76642 3.78102,-4.76642 -4.74309,-0.36849 -10.68371,-2.0078 -16.85987,-2.4492 -6.16087,-0.44031 -12.59571,0.32273 -17.58323,4.53301 z m 19.20132,-17.99343 c -8.92814,5.01964 -10.80708,13.78992 -10.80708,13.78992 8.29693,-1.28078 14.17228,0.38487 18.34883,1.22799 4.6204,0.93271 8.16771,1.2075 14.0636,-1.21742 2.44462,-1.00544 5.46882,-3.41144 7.91317,-5.4878 2.04024,-2.093 4.43047,-4.08035 4.43047,-4.08035 -2.75824,-0.78356 -5.64847,-2.22507 -8.91762,-3.38592 -7.76179,-2.71987 -17.0943,-5.30887 -25.03137,-0.84642 z m 22.49067,-14.48819 c -1.80998,0.62457 -3.52766,1.51638 -5.11526,2.59569 0,0 0,0 0,0 -6.13198,3.90027 -8.35517,9.31881 -8.35517,9.31881 7.39954,0.20933 12.44104,2.22779 16.18175,3.70402 3.88532,1.57038 6.91591,3.25554 11.83287,2.69939 0,0 10e-6,0 10e-6,0 1.13721,-0.0944 2.36585,-0.28495 3.7262,-0.58631 2.69051,-0.59604 6.21032,-2.53403 9.12219,-4.33722 3.17873,-1.96263 5.66491,-3.80075 5.66491,-3.80075 -2.73951,-0.97028 -5.7185,-2.55833 -8.86627,-4.21069 0,0 0,0 0,0 -5.66747,-2.97645 -11.95595,-6.20225 -18.52134,-6.22698 0,0 0,0 0,0 -1.80239,-0.0626 -3.68625,0.15955 -5.66989,0.84404 z m 23.23977,-10.02895 c -1.6765,0.36369 -3.21027,0.90091 -4.59378,1.53488 0,0 0,0 0,0 -6.31906,2.88758 -9.49826,7.76781 -9.49826,7.76781 7.10888,1.61352 11.67046,4.40963 15.1687,6.42251 4.76284,2.73911 8.32552,4.53513 15.68505,3.42326 5.7503,-0.86876 15.25993,-7.0568 15.25993,-7.0568 -8.68499,-3.93142 -19.86537,-14.72879 -32.02164,-12.09166 z"
           id="path11614-3"
           sodipodi:nodetypes="ccc"
           inkscape:original-d="m 365.78174,361.38442 c -0.27238,-53.9826 29.36485,-89.29172 63.49422,-108.81039 7.89459,-4.98025 33.19372,-15.2899 52.86332,-20.92397"
           inkscape:path-effect="#path-effect38926" />
      </g>
    </g>
    <g
       id="g80574">
      <path
         id="text70962-3"
         style="font-style:normal;font-weight:normal;font-size:76.7962px;line-height:1.25;font-family:sans-serif;fill:#fdd7d7;fill-opacity:1;stroke:none;stroke-width:1.91991"
         d="m 499.40625,374.77539 c -7.30447,0.0408 -14.52288,3.3009 -19.40039,8.72852 -5.34915,-5.09269 -12.75273,-8.02293 -20.15586,-7.70554 -7.00883,0.0183 -14.02142,-0.0853 -21.02772,0.0847 -2.63272,0.20868 -5.15741,1.33422 -7.15822,3.04276 -4.86558,-2.46028 -10.39734,-3.32375 -15.80937,-3.12211 -6.3482,0.0164 -12.69989,-0.0837 -19.04575,0.0758 -5.82027,0.45148 -10.95453,5.32002 -11.64878,11.12834 -0.42351,3.79847 -0.24516,7.8592 1.67477,11.26252 0.33395,0.69074 0.89718,1.2867 1.24521,1.93319 0.0115,11.93932 0.0127,23.87864 0.004,35.81796 -2.25836,2.79884 -3.07398,6.48895 -2.9385,10.02417 0.0159,4.86141 2.30167,9.92818 6.60572,12.429 3.25161,1.98622 7.19921,1.94106 10.87732,1.83765 5.27405,-0.0504 10.56144,0.16092 15.82502,-0.21765 4.22301,-0.62305 7.96512,-3.53695 9.79646,-7.36613 1.7257,3.87278 5.47702,6.70488 9.65653,7.36791 2.45448,0.45489 4.95407,0.10987 7.43058,0.20927 4.43435,-0.0115 8.88117,0.11848 13.30547,-0.20609 0.86993,-0.0884 1.71447,-0.48701 2.54795,-0.60887 3.75452,1.31035 7.77577,0.66431 11.66216,0.83216 2.79472,-0.007 5.67729,0.0437 8.35825,-0.85024 1.53149,-0.55768 2.9348,-1.43828 4.14844,-2.52149 6.87225,4.37167 15.77021,5.24328 23.40032,2.44116 3.56656,-1.26928 6.88117,-3.35809 9.58796,-5.95288 1.90334,3.63128 5.62933,6.22197 9.71069,6.68337 3.16457,0.44078 6.36452,0.0581 9.54477,0.18688 4.16389,-0.035 8.34891,0.1538 12.49503,-0.2838 3.65044,-0.6702 6.91814,-3.05293 8.76318,-6.26028 5.0319,4.8311 12.04278,7.48632 19.01153,7.22461 6.66853,-0.18432 13.30892,-2.89014 18.05683,-7.56054 1.93129,3.70091 5.76075,6.3134 9.92065,6.7218 3.21957,0.38392 6.46556,0.0398 9.69692,0.15847 4.0203,-0.0268 8.05921,0.13406 12.06346,-0.27018 2.52796,-0.44231 4.87934,-1.72042 6.70569,-3.51244 2.56484,2.5777 6.23706,3.79826 9.82835,3.79538 3.04206,0.0265 6.08471,-0.0534 9.1275,-0.007 3.71574,-0.0108 7.44669,0.0765 11.14915,-0.25188 1.17102,-0.20072 2.3119,-0.5971 3.37547,-1.10888 2.73942,1.35198 5.86229,1.4959 8.85858,1.35767 5.62568,-0.0527 11.26456,0.15992 16.88018,-0.20985 3.96439,-0.5807 7.5217,-3.17107 9.46631,-6.64978 1.88261,3.77482 5.81738,6.28532 9.97386,6.7298 2.71386,0.33755 5.45203,0.0411 8.17731,0.12721 7.02115,-0.0196 14.04871,0.0934 21.06512,-0.14773 5.81953,-0.68094 10.7225,-5.78023 11.27031,-11.59869 0.77294,-4.29275 1.55087,-8.59603 2.00755,-12.93359 0.0902,-3.24228 -1.03528,-6.50609 -3.11329,-8.99731 0.94383,-3.37961 0.44382,-6.91962 0.56714,-10.37578 0.0246,-2.93839 0.0212,-5.892 -0.16675,-8.81758 2.2325,-3.20437 2.71814,-7.39343 1.72224,-11.12386 -0.74219,-3.73413 -1.36156,-7.50149 -2.33198,-11.1839 -1.14274,-3.69995 -3.95812,-6.84407 -7.5712,-8.27379 -2.55351,-1.07085 -5.36938,-1.20124 -8.09874,-1.0542 -7.86365,0.0142 -15.73341,-0.11129 -23.59292,0.10765 -2.40089,0.27813 -4.70538,1.2726 -6.58443,2.78787 -4.81725,-2.3299 -10.24776,-3.09701 -15.55742,-2.89874 -6.11968,0.0264 -12.24403,-0.0957 -18.36055,0.094 -1.71123,0.21241 -3.41236,-0.1975 -5.12928,-0.11675 -2.30722,0.0458 -4.61558,-0.0108 -6.9215,0.0425 -1.31347,0.0634 -2.62202,0.31933 -3.88281,0.64453 -3.67572,-1.13973 -7.55625,-0.52431 -11.33241,-0.67028 -3.81776,0.006 -7.65321,-0.10598 -11.45604,0.23248 -0.75577,0.16757 -1.53253,-0.25618 -2.3117,-0.18343 -3.22675,-0.14067 -6.45791,0.0129 -9.68657,-0.052 -7.18493,0.0279 -14.37628,-0.0981 -21.55659,0.14308 -2.89075,0.33223 -5.6712,1.59872 -7.80513,3.57893 -5.02066,-3.59357 -11.35145,-5.22285 -17.48685,-4.62886 -4.45661,0.40741 -8.80251,1.97343 -12.49948,4.4941 -2.87957,-2.71371 -6.96187,-3.86038 -10.85937,-3.60033 -9.48598,0.0579 -18.9749,-0.0737 -28.45891,0.10807 -3.06147,0.24367 -6.02272,1.5487 -8.28133,3.62702 -4.43763,-3.16113 -9.8847,-4.85174 -15.33398,-4.73828 z"
         sodipodi:nodetypes="cccccccccccccccccccccccccccccccccccccccccccccccccccccccccccccccccccccccccc" />
      <path
         id="path80525"
         style="font-size:76.7962px;line-height:1.25;font-family:'Bernard MT Condensed';-inkscape-font-specification:'Bernard MT Condensed, ';fill:#b22222;stroke-width:1.91991"
         d="m 499.76172,386.7793 c -5.74972,0 -10.32478,2.88739 -13.72461,8.66211 -3.37483,5.77471 -5.0625,13.32389 -5.0625,22.64843 0,9.09956 1.65134,16.52373 4.95117,22.27344 3.29984,5.74971 7.8124,8.625 13.53711,8.625 6.0247,0 10.68649,-2.93779 13.98633,-8.8125 3.32483,-5.89971 4.98633,-13.12425 4.98633,-21.67383 0,-7.12464 -0.84892,-12.96194 -2.54883,-17.51172 -1.69991,-4.54978 -3.89974,-8.04816 -6.59961,-10.49804 -2.67487,-2.47488 -5.85058,-3.71289 -9.52539,-3.71289 z m 77.58398,0 c -5.74972,0 -10.32478,2.88739 -13.72461,8.66211 -3.37483,5.77471 -5.0625,13.32389 -5.0625,22.64843 0,9.09956 1.65134,16.52373 4.95118,22.27344 3.29984,5.74971 7.81044,8.625 13.53515,8.625 6.02471,0 10.68845,-2.93779 13.98828,-8.8125 3.32484,-5.89971 4.98633,-13.12425 4.98633,-21.67383 0,-7.12464 -0.84891,-12.96194 -2.54883,-17.51172 -1.69991,-4.54978 -3.89974,-8.04816 -6.59961,-10.49804 -2.67486,-2.47488 -5.85057,-3.71289 -9.52539,-3.71289 z m -178.82812,1.01172 c -0.64997,0 -1.0754,0.12501 -1.27539,0.375 -0.17499,0.22498 -0.26172,0.71292 -0.26172,1.46289 l 0.0371,1.76171 c 0.025,0.77497 0.38792,1.34963 1.08789,1.72461 1.32493,0.64998 1.98633,1.51295 1.98633,2.58789 v 45.29883 c 0,0.57497 -0.0867,0.98634 -0.26172,1.23633 -0.14999,0.22499 -0.5512,0.43869 -1.20117,0.63867 -0.72496,0.225 -1.14845,0.48713 -1.27344,0.78711 -0.12499,0.27499 -0.1875,1.03718 -0.1875,2.28711 0,1.57493 0.44965,2.36133 1.34961,2.36133 h 16.98633 c 0.82496,0 1.3754,-0.11094 1.65039,-0.33594 0.27498,-0.24998 0.41211,-0.87505 0.41211,-1.875 0,-1.04995 -0.12502,-1.76369 -0.375,-2.13867 -0.225,-0.39998 -0.63832,-0.71251 -1.23829,-0.9375 -1.24993,-0.44998 -1.875,-1.39968 -1.875,-2.84961 v -12.48633 h 4.6875 c 2.27489,0 4.41221,-0.41332 6.41211,-1.23828 2.0249,-0.82496 3.7993,-1.88561 5.32422,-3.18555 1.54992,-1.29993 2.82622,-3.3263 3.82617,-6.07617 1.02495,-2.74986 1.53711,-5.88728 1.53711,-9.41211 0,-6.24969 -1.64938,-11.13728 -4.94921,-14.66211 -3.27484,-3.54982 -7.6745,-5.32421 -13.19922,-5.32421 z m 41.69726,0 c -1.04994,0 -1.57422,0.97588 -1.57422,2.92578 0,0.97495 0.0746,1.56172 0.22461,1.76172 0.14999,0.19998 0.52503,0.39961 1.125,0.5996 1.19994,0.34998 1.79883,1.33798 1.79883,2.9629 v 43.91015 c 0,1.59992 -0.68756,2.67464 -2.0625,3.22461 -0.42498,0.14999 -0.675,0.41213 -0.75,0.78711 -0.075,0.34999 -0.11133,1.15046 -0.11133,2.40039 0,1.29994 0.44966,1.94922 1.34961,1.94922 h 15.86133 c 0.69996,0 1.1758,-0.16134 1.42578,-0.48633 0.27499,-0.34998 0.41211,-1.24928 0.41211,-2.69922 0,-0.99994 -0.33675,-1.71369 -1.01172,-2.13867 -0.52497,-0.32499 -0.85157,-0.63752 -0.97656,-0.9375 -0.1,-0.29999 -0.14844,-0.88676 -0.14844,-1.76172 v -18.59961 h 1.6875 c 2.97486,0 4.46094,1.47593 4.46094,4.42578 v 15.11133 c 0,1.9999 0.38715,3.68757 1.16211,5.0625 0.77496,1.34994 1.76295,2.02344 2.96289,2.02344 h 10.05078 c 0.74996,0 1.21173,-0.13712 1.38672,-0.41211 0.17499,-0.27499 0.26172,-1.136 0.26172,-2.58594 0,-0.92495 -0.33675,-1.61252 -1.01172,-2.0625 -0.57497,-0.37498 -0.86328,-0.93754 -0.86328,-1.6875 v -8.92578 c 0,-7.24964 -3.46206,-11.63718 -10.38672,-13.16211 7.57463,-2.27488 11.36328,-7.12419 11.36328,-14.54883 0,-5.22474 -1.62516,-9.38648 -4.875,-12.48632 -3.22484,-3.09985 -6.90059,-4.65039 -11.02539,-4.65039 z m 84.9336,0 c -1.19994,0 -1.95002,0.1633 -2.25,0.48828 -0.29998,0.29998 -0.47539,0.96137 -0.52539,1.98632 l -0.44922,8.73829 c -0.025,0.44998 -0.0371,0.89963 -0.0371,1.34961 0,0.77496 0.14923,1.29923 0.44922,1.57421 0.32498,0.24999 1.02466,0.375 2.09961,0.375 1.12494,0 1.87502,-0.17541 2.25,-0.52539 0.37498,-0.37498 0.64923,-1.27429 0.82422,-2.69922 0.37498,-3.24984 0.7379,-5.23792 1.08789,-5.96289 0.34998,-0.74996 0.79963,-1.12304 1.34961,-1.12304 h 1.6875 v 48.89648 c 0,0.69997 -0.0988,1.20002 -0.29883,1.5 -0.19999,0.27499 -0.67582,0.5633 -1.42578,0.86328 -0.77496,0.29998 -1.16211,1.1489 -1.16211,2.54883 0,1.17494 0.0867,1.88673 0.26172,2.13672 0.19998,0.24999 0.62541,0.375 1.27539,0.375 h 16.5 c 0.79996,0 1.31212,-0.0988 1.53711,-0.29883 0.22499,-0.22498 0.33789,-0.97506 0.33789,-2.25 0,-0.99994 -0.0887,-1.64923 -0.26368,-1.94922 -0.14999,-0.32498 -0.47463,-0.60118 -0.9746,-0.82617 -1.19994,-0.52497 -1.79883,-1.47467 -1.79883,-2.84961 v -48.14648 h 1.125 c 0.69996,0 1.28674,0.69967 1.76172,2.09961 0.47498,1.37492 0.91252,3.14932 1.3125,5.32422 0.22498,1.32494 0.51134,2.11134 0.86132,2.36132 0.37498,0.24999 1.20163,0.375 2.47657,0.375 0.99995,0 1.58672,-0.19963 1.76172,-0.59961 0.19998,-0.39998 0.30078,-0.97464 0.30078,-1.72461 0,-0.62496 -0.0262,-1.23791 -0.0762,-1.83789 l -0.63671,-7.72461 c -0.1,-1.24993 -0.23713,-1.97383 -0.41211,-2.17382 -0.175,-0.19999 -0.66293,-0.30078 -1.46289,-0.30078 z m 77.58398,0 c -1.19994,0 -1.95001,0.1633 -2.25,0.48828 -0.29998,0.29998 -0.47539,0.96137 -0.52539,1.98632 l -0.44922,8.73829 c -0.025,0.44998 -0.0391,0.89963 -0.0391,1.34961 0,0.77496 0.15119,1.29923 0.45117,1.57421 0.32499,0.24999 1.02466,0.375 2.09961,0.375 1.12494,0 1.87501,-0.17541 2.25,-0.52539 0.37498,-0.37498 0.64923,-1.27429 0.82422,-2.69922 0.37498,-3.24984 0.73791,-5.23792 1.08789,-5.96289 0.34999,-0.74996 0.79964,-1.12304 1.34961,-1.12304 h 1.6875 v 48.89648 c 0,0.69997 -0.0988,1.20002 -0.29883,1.5 -0.19999,0.27499 -0.67582,0.5633 -1.42578,0.86328 -0.77497,0.29998 -1.16211,1.1489 -1.16211,2.54883 0,1.17494 0.0867,1.88673 0.26172,2.13672 0.19999,0.24999 0.62542,0.375 1.27539,0.375 h 16.5 c 0.79996,0 1.31212,-0.0988 1.53711,-0.29883 0.22499,-0.22498 0.33789,-0.97506 0.33789,-2.25 0,-0.99994 -0.0887,-1.64923 -0.26367,-1.94922 -0.14999,-0.32498 -0.47464,-0.60118 -0.97461,-0.82617 -1.19994,-0.52497 -1.80078,-1.47467 -1.80078,-2.84961 v -48.14648 h 1.125 c 0.69996,0 1.28869,0.69967 1.76367,2.09961 0.47497,1.37492 0.91252,3.14932 1.3125,5.32422 0.22499,1.32494 0.51135,2.11134 0.86133,2.36132 0.37498,0.24999 1.19967,0.375 2.47461,0.375 0.99994,0 1.58868,-0.19963 1.76367,-0.59961 0.19999,-0.39998 0.29883,-0.97464 0.29883,-1.72461 0,-0.62496 -0.0242,-1.23791 -0.0742,-1.83789 l -0.63672,-7.72461 c -0.1,-1.24993 -0.23907,-1.97383 -0.41406,-2.17382 -0.175,-0.19999 -0.66098,-0.30078 -1.46094,-0.30078 z m 33.59766,0 c -0.72496,0 -1.08789,0.3387 -1.08789,1.01367 v 2.84961 c 0,0.57496 0.2762,0.98633 0.82617,1.23632 1.02495,0.42498 1.72463,1.30006 2.09961,2.625 l 7.53711,26.66211 v 18.44922 c 0,0.79996 -0.10079,1.34846 -0.30078,1.64844 -0.19999,0.27499 -0.59925,0.5129 -1.19922,0.71289 -1.14994,0.37498 -1.72461,1.02622 -1.72461,1.95117 v 2.21094 c 0,0.77497 0.43755,1.16211 1.3125,1.16211 h 17.77344 c 0.59997,0 0.99923,-0.0988 1.19921,-0.29883 0.2,-0.19998 0.30079,-0.77465 0.30079,-1.72461 0,-1.54992 -0.11291,-2.42501 -0.33789,-2.625 -0.2,-0.22499 -0.57503,-0.43868 -1.125,-0.63867 -1.27494,-0.44998 -1.91211,-1.17387 -1.91211,-2.17383 v -19.64844 l 7.61132,-25.6875 c 0.37498,-1.24993 1.03833,-2.21175 1.98829,-2.88671 0.54997,-0.39998 0.82421,-0.81331 0.82421,-1.23829 v -2.36132 c 0,-0.82496 -0.37504,-1.23828 -1.125,-1.23828 h -8.21093 c -0.72496,0 -1.08789,0.41332 -1.08789,1.23828 v 2.21289 c 0,0.32498 0.2258,0.68596 0.67578,1.08593 0.97495,0.84997 1.46093,1.67465 1.46093,2.47461 10e-6,0.32499 -0.0121,0.5629 -0.0371,0.71289 l -5.0625,16.72461 -4.91211,-16.72461 c -0.125,-0.42498 -0.1875,-0.80001 -0.1875,-1.125 0,-0.57497 0.28831,-1.04884 0.86328,-1.42382 0.39998,-0.22499 0.63789,-0.47502 0.71289,-0.75 0.1,-0.29999 0.14844,-0.98756 0.14844,-2.0625 0,-1.07495 -0.0746,-1.7383 -0.22461,-1.98828 -0.15,-0.24999 -0.45042,-0.375 -0.90039,-0.375 z m 37.31054,0 c -0.64996,0 -1.07539,0.12501 -1.27539,0.375 -0.17498,0.22498 -0.26171,0.71292 -0.26171,1.46289 l 0.0371,1.76171 c 0.025,0.77497 0.38793,1.34963 1.0879,1.72461 1.32493,0.64998 1.98632,1.51295 1.98632,2.58789 v 45.29883 c 0,0.57497 -0.0867,0.98634 -0.26172,1.23633 -0.14999,0.22499 -0.54925,0.43869 -1.19921,0.63867 -0.72497,0.225 -1.1504,0.48713 -1.27539,0.78711 -0.125,0.27499 -0.1875,1.03718 -0.1875,2.28711 0,1.57493 0.44965,2.36133 1.3496,2.36133 h 16.98633 c 0.82496,0 1.37541,-0.11094 1.65039,-0.33594 0.27499,-0.24998 0.41211,-0.87505 0.41211,-1.875 0,-1.04995 -0.12501,-1.76369 -0.375,-2.13867 -0.22499,-0.39998 -0.63636,-0.71251 -1.23633,-0.9375 -1.24994,-0.44998 -1.875,-1.39968 -1.875,-2.84961 v -12.48633 h 4.6875 c 2.27489,0 4.41221,-0.41332 6.41211,-1.23828 2.0249,-0.82496 3.7993,-1.88561 5.32422,-3.18555 1.54992,-1.29993 2.82427,-3.3263 3.82422,-6.07617 1.02495,-2.74986 1.53711,-5.88728 1.53711,-9.41211 0,-6.24969 -1.64938,-11.13728 -4.94922,-14.66211 -3.27484,-3.54982 -7.67449,-5.32421 -13.19922,-5.32421 z m 41.43555,0 c -0.72496,0 -1.1625,0.10079 -1.3125,0.30078 -0.14999,0.17499 -0.22461,0.74965 -0.22461,1.72461 0,1.14994 0.0625,1.87579 0.1875,2.17578 0.15,0.29998 0.59965,0.61056 1.34961,0.93554 1.09994,0.47498 1.6625,0.95081 1.6875,1.42579 v 46.75976 c 0,0.99995 -0.68757,1.78831 -2.0625,2.36328 -0.89996,0.39998 -1.34961,1.03716 -1.34961,1.91211 0,1.37494 0.0867,2.21173 0.26172,2.51172 0.17499,0.27499 0.57621,0.41211 1.20117,0.41211 h 25.00977 c 0.84996,0 1.35001,-0.14923 1.5,-0.44922 0.17499,-0.32499 0.38868,-1.26258 0.63867,-2.8125 l 1.38672,-8.51172 c 0.1,-0.57497 0.15039,-1.01251 0.15039,-1.3125 0,-0.99994 -0.7743,-1.5 -2.32422,-1.5 -1.12495,0 -1.9133,0.21174 -2.36328,0.63672 -0.44997,0.42497 -0.88752,1.32624 -1.3125,2.70117 -1.02495,3.27484 -1.77503,5.26097 -2.25,5.96094 -0.44998,0.67497 -1.28678,1.01367 -2.51172,1.01367 H 730.75 v -25.83594 h 2.92578 c 0.54997,0 0.94923,0.14924 1.19922,0.44922 0.27499,0.29999 0.55119,1.11257 0.82617,2.4375 0.27499,1.44993 0.54923,2.33713 0.82422,2.66211 0.29998,0.29999 0.87465,0.44922 1.72461,0.44922 1.29994,0 2.07423,-0.11094 2.32422,-0.33594 0.24999,-0.24998 0.375,-0.76214 0.375,-1.53711 v -12.48828 c 0,-1.09994 -0.13712,-1.725 -0.41211,-1.875 -0.24999,-0.17499 -1.36103,-0.26172 -3.33594,-0.26172 -0.39998,0 -0.7004,0.17541 -0.90039,0.5254 -0.17499,0.34998 -0.4129,1.41258 -0.71289,3.1875 -0.17499,0.99995 -0.42501,1.64923 -0.75,1.94921 -0.32499,0.29999 -0.83715,0.44922 -1.53711,0.44922 H 730.75 V 392.4043 h 2.55078 c 0.69996,0 1.32503,0.43754 1.875,1.3125 0.57497,0.87495 1.25043,2.43761 2.02539,4.6875 0.42498,1.24994 0.86057,2.03634 1.31055,2.36132 0.44998,0.29998 1.35124,0.44922 2.70117,0.44922 1.19994,0 1.79883,-0.33675 1.79883,-1.01172 0,-0.17498 -0.0484,-0.51173 -0.14844,-1.01171 l -1.91406,-9.67579 c -0.14999,-0.74996 -0.36173,-1.22383 -0.63672,-1.42382 -0.27499,-0.19999 -0.71253,-0.30078 -1.3125,-0.30078 z m -215.38867,3.1875 c 2.0249,0 3.03711,1.56265 3.03711,4.6875 v 44.99804 c 0,1.07495 -0.28831,2.04887 -0.86328,2.92383 -0.54998,0.87495 -1.28599,1.3125 -2.21094,1.3125 -0.82496,0 -1.5387,-0.38715 -2.13867,-1.16211 -0.59997,-0.79996 -0.90039,-1.9614 -0.90039,-3.48633 v -45.26172 c 0,-1.12494 0.30042,-2.07464 0.90039,-2.84961 0.59997,-0.77495 1.32582,-1.1621 2.17578,-1.1621 z m 77.58398,0 c 2.0249,0 3.03711,1.56265 3.03711,4.6875 v 44.99804 c 0,1.07495 -0.2883,2.04887 -0.86328,2.92383 -0.54996,0.87495 -1.28793,1.3125 -2.21289,1.3125 -0.82496,0 -1.53675,-0.38715 -2.13672,-1.16211 -0.59997,-0.79996 -0.90039,-1.9614 -0.90039,-3.48633 v -45.26172 c 0,-1.12494 0.30042,-2.07464 0.90039,-2.84961 0.59997,-0.77495 1.32582,-1.1621 2.17578,-1.1621 z m -163.19336,0.9746 h 1.91211 c 2.79986,0 4.20118,2.10099 4.20118,6.30079 v 18.71093 c 0,2.29989 -0.36293,3.94928 -1.08789,4.94922 -0.69997,0.97496 -1.50044,1.46289 -2.4004,1.46289 h -2.625 z m 275.125,0 h 1.91211 c 2.79986,0 4.19922,2.10099 4.19922,6.30079 v 18.71093 c 0,2.29989 -0.36292,3.94928 -1.08789,4.94922 -0.69996,0.97496 -1.49848,1.46289 -2.39844,1.46289 h -2.625 z m -233.42578,0.11329 h 1.27344 c 1.67491,0 2.90082,0.43754 3.67578,1.3125 0.79996,0.84996 1.19922,2.32393 1.19922,4.42382 v 12.07422 c 0,4.97476 -1.23606,7.46289 -3.71094,7.46289 h -2.4375 z" />
    </g>
    <text
       xml:space="preserve"
       style="font-style:normal;font-variant:normal;font-weight:400;font-size:57.2082px;line-height:125%;font-family:'Freestyle Script';text-align:start;letter-spacing:0px;word-spacing:0px;text-anchor:start;fill:#ffffff;fill-opacity:1;stroke:none;stroke-width:0.536855"
       x="713.01453"
       y="89.850624"
       id="text83238"><tspan
         sodipodi:role="line"
         x="713.01453"
         y="89.850624"
         id="tspan83236"
         style="font-style:normal;font-variant:normal;font-weight:normal;font-stretch:normal;font-family:Arial;-inkscape-font-specification:Arial;fill:#ffffff;fill-opacity:1;stroke-width:0.536855"><tspan
           dx="0"
           dy="0"
           style="font-style:normal;font-variant:normal;font-weight:normal;font-stretch:normal;font-size:57.2082px;font-family:Arial;-inkscape-font-specification:Arial;fill:#ffffff;fill-opacity:1;stroke-width:0.536855"
           id="tspan83234"></tspan></tspan></text>
    <text
       xml:space="preserve"
       style="font-style:normal;font-variant:normal;font-weight:400;font-size:14.6875px;line-height:125%;font-family:Calibri;text-align:start;letter-spacing:0px;word-spacing:0px;text-anchor:start;fill:#000000;fill-opacity:1;stroke:none"
       x="420.67047"
       y="148.04361"
       id="text83244"><tspan
         sodipodi:role="line"
         x="420.67047"
         y="148.04361"
         id="tspan83242"><tspan
           dx="0"
           dy="0"
           style="font-style:normal;font-variant:normal;font-weight:400;font-size:14.6875px;font-family:Calibri;fill:#000000"
           id="tspan83240"> </tspan></tspan></text>
  </g>
</svg>
